<svg width="22" height="22" xmlns="http://www.w3.org/2000/svg" xmlns:xlink="http://www.w3.org/1999/xlink"><defs><path d="M11 .755A10.5 10.5 0 007.7 21.23c.525.075.75-.225.75-.525v-1.8c-2.925.6-3.525-1.425-3.525-1.425a2.505 2.505 0 00-1.2-1.5c-.975-.675.075-.675.075-.675.66.084 1.244.472 1.575 1.05a2.34 2.34 0 003.075.9c.052-.54.29-1.043.675-1.425-2.325-.3-4.8-1.2-4.8-5.175a4.17 4.17 0 011.05-2.85A4.215 4.215 0 015.45 5s.9-.3 2.85 1.05c.855-.24 1.737-.366 2.625-.375.888.009 1.77.135 2.625.375C15.575 4.73 16.4 5 16.4 5a3.36 3.36 0 01.075 2.775 4.035 4.035 0 011.05 2.85c0 4.05-2.475 4.95-4.8 5.175.523.51.797 1.222.75 1.95v2.85c0 .3.225.6.75.525a10.26 10.26 0 007.275-9.87c0-5.799-4.701-10.5-10.5-10.5z" id="a"/></defs><use fill="#000" xlink:href="#a" fill-rule="evenodd"/></svg>