<svg width="24" height="24" xmlns="http://www.w3.org/2000/svg"><path fill="none" id="canvas_background" d="M-1-1h26v26H-1z"/><g><circle id="svg_1" cy="12" cx="12" stroke="#000" fill="#000" r="11"/><style>.st0{fill:#fff}</style><g stroke="null" id="svg_19"><g stroke="null" transform="matrix(.13016 0 0 .13016 -6.849 -6.832)" id="svg_6"><g id="svg_7"><path stroke="null" id="svg_8" d="M110.298 161.293c0 7.1-5.8 12.9-12.9 12.9s-12.9-5.8-12.9-12.9c0-7.1 5.8-12.9 12.9-12.9h12.9v12.9z" class="st0"/><path stroke="null" id="svg_9" d="M116.798 161.293c0-7.1 5.8-12.9 12.9-12.9s12.9 5.8 12.9 12.9v32.3c0 7.1-5.8 12.9-12.9 12.9s-12.9-5.8-12.9-12.9v-32.3z" class="st0"/></g><g id="svg_10"><path stroke="null" id="svg_11" d="M129.698 109.493c-7.1 0-12.9-5.8-12.9-12.9s5.8-12.9 12.9-12.9 12.9 5.8 12.9 12.9v12.9h-12.9z" class="st0"/><path stroke="null" id="svg_12" d="M129.698 115.993c7.1 0 12.9 5.8 12.9 12.9s-5.8 12.9-12.9 12.9h-32.3c-7.1 0-12.9-5.8-12.9-12.9s5.8-12.9 12.9-12.9h32.3z" class="st0"/></g><g id="svg_13"><path stroke="null" id="svg_14" d="M181.498 128.893c0-7.1 5.8-12.9 12.9-12.9 7.1 0 12.9 5.8 12.9 12.9s-5.8 12.9-12.9 12.9h-12.9v-12.9z" class="st0"/><path stroke="null" id="svg_15" d="M174.998 128.893c0 7.1-5.8 12.9-12.9 12.9-7.1 0-12.9-5.8-12.9-12.9v-32.3c0-7.1 5.8-12.9 12.9-12.9 7.1 0 12.9 5.8 12.9 12.9v32.3z" class="st0"/></g><g id="svg_16"><path stroke="null" id="svg_17" d="M162.098 180.693c7.1 0 12.9 5.8 12.9 12.9 0 7.1-5.8 12.9-12.9 12.9-7.1 0-12.9-5.8-12.9-12.9v-12.9h12.9z" class="st0"/><path stroke="null" id="svg_18" d="M162.098 174.193c-7.1 0-12.9-5.8-12.9-12.9 0-7.1 5.8-12.9 12.9-12.9h32.3c7.1 0 12.9 5.8 12.9 12.9 0 7.1-5.8 12.9-12.9 12.9h-32.3z" class="st0"/></g></g></g></g></svg>