<svg width="22" height="22" xmlns="http://www.w3.org/2000/svg"><path d="M11 22c6.075 0 11-4.925 11-11S17.075 0 11 0 0 4.925 0 11s4.925 11 11 11zm7.875-15.894c-.58.286-1.21.458-1.856.507a3.026 3.026 0 001.406-1.8A6.328 6.328 0 0116.4 5.6a3.223 3.223 0 00-5.569 2.194c0 .281.057.506.057.731A8.944 8.944 0 014.25 5.15a3.437 3.437 0 00-.45 1.687 3.167 3.167 0 001.463 2.7A3.341 3.341 0 013.8 9.145V9.2a3.206 3.206 0 002.588 3.15c-.277.065-.56.103-.844.112a2.3 2.3 0 01-.619-.056 3.28 3.28 0 003.038 2.25 6.62 6.62 0 01-3.994 1.406c-.264.01-.528-.01-.788-.056a9.293 9.293 0 004.95 1.463c5.963 0 9.169-4.95 9.169-9.169v-.394a9.523 9.523 0 001.575-1.8z" fill-rule="evenodd"/></svg>