<svg width="503" height="380" xmlns="http://www.w3.org/2000/svg" xmlns:xlink="http://www.w3.org/1999/xlink"><defs><filter x="-17.7%" y="-16.7%" width="135.3%" height="133.3%" filterUnits="objectBoundingBox" id="g"><feOffset in="SourceAlpha" result="shadowOffsetOuter1"/><feGaussianBlur stdDeviation="3.5" in="shadowOffsetOuter1" result="shadowBlurOuter1"/><feColorMatrix values="0 0 0 0 0 0 0 0 0 0 0 0 0 0 0 0 0 0 0.5 0" in="shadowBlurOuter1" result="shadowMatrixOuter1"/><feMerge><feMergeNode in="shadowMatrixOuter1"/><feMergeNode in="SourceGraphic"/></feMerge></filter><filter x="-8.2%" y="-10.6%" width="116.5%" height="121.1%" filterUnits="objectBoundingBox" id="a"><feGaussianBlur stdDeviation="5" in="SourceGraphic"/></filter><filter x="-8.4%" y="-10.4%" width="116.8%" height="120.7%" filterUnits="objectBoundingBox" id="c"><feGaussianBlur stdDeviation="5" in="SourceGraphic"/></filter><filter x="-1.9%" y="-2.4%" width="103.9%" height="104.8%" filterUnits="objectBoundingBox" id="d"><feGaussianBlur stdDeviation="1" in="SourceGraphic"/></filter><filter x="-8.4%" y="-10.4%" width="116.8%" height="120.7%" filterUnits="objectBoundingBox" id="e"><feGaussianBlur stdDeviation="5" in="SourceGraphic"/></filter><filter x="-2%" y="-2.4%" width="104%" height="104.9%" filterUnits="objectBoundingBox" id="f"><feGaussianBlur stdDeviation="1" in="SourceGraphic"/></filter><filter x="-1.9%" y="-2.4%" width="103.8%" height="104.9%" filterUnits="objectBoundingBox" id="b"><feGaussianBlur stdDeviation="1" in="SourceGraphic"/></filter><filter x="-5.3%" y="-5%" width="110.6%" height="110%" filterUnits="objectBoundingBox" id="l"><feGaussianBlur stdDeviation="2" in="SourceGraphic"/></filter><filter x="-.5%" y="-.5%" width="101%" height="101%" filterUnits="objectBoundingBox" id="h"><feGaussianBlur in="SourceGraphic"/></filter><filter x="-5.1%" y="-4.8%" width="110.2%" height="109.6%" filterUnits="objectBoundingBox" id="j"><feMorphology radius="1" in="SourceAlpha" result="shadowSpreadInner1"/><feGaussianBlur stdDeviation="4" in="shadowSpreadInner1" result="shadowBlurInner1"/><feOffset in="shadowBlurInner1" result="shadowOffsetInner1"/><feComposite in="shadowOffsetInner1" in2="SourceAlpha" operator="arithmetic" k2="-1" k3="1" result="shadowInnerInner1"/><feColorMatrix values="0 0 0 0 0.905882353 0 0 0 0 0.717647059 0 0 0 0 0.105882353 0 0 0 1 0" in="shadowInnerInner1"/></filter><filter x="-3.1%" y="-2.9%" width="106.3%" height="105.9%" filterUnits="objectBoundingBox" id="k"><feGaussianBlur stdDeviation="1" in="SourceGraphic"/></filter><filter x="-7.1%" y="-6.7%" width="114.3%" height="113.5%" filterUnits="objectBoundingBox" id="m"><feGaussianBlur stdDeviation="3" in="SourceGraphic"/></filter><path d="M35.226 75.055c.28.866.027 1.754-.761 2.666-12 1.53-15.678 6.25-11.03 14.159 4.646 7.91 10.423 7.146 17.331-2.29 1.51-.681 2.59-.382 3.24.896.651 1.278 6.472 11.589 17.464 30.931h10.057C82.919 101.55 88.854 91.24 89.333 90.486c.478-.753 1.54-.939 3.185-.557 7.357 9.608 13.222 10.259 17.594 1.95 6.558-12.46-10.853-13.178-11.502-14.158-.65-.98-.65-1.845-.263-2.958.257-.743 6.044-10.997 17.358-30.763l-4.586-8.127c-22.696.068-34.577.068-35.643 0-1.067-.067-1.868-.876-2.405-2.427 4.44-10.686 2.124-16.029-6.945-16.029-9.07 0-11.325 5.343-6.766 16.029 0 1.494-.554 2.241-1.66 2.241H21.212l-3.508 7.74c11.4 20.219 17.24 30.762 17.52 31.628z" id="i"/></defs><g fill="none" fill-rule="evenodd"><path d="M252.697 5.501L334 142h-72.212c-2.669 0-4.832-2.154-4.832-4.811 0-.634.126-1.262.37-1.847 8.328-19.95 3.553-29.925-14.326-29.925s-22.654 9.975-14.326 29.925a4.804 4.804 0 01-2.607 6.29 4.85 4.85 0 01-1.855.368H152L233.303 5.501c3.176-5.333 10.093-7.092 15.448-3.929a11.25 11.25 0 013.946 3.93z" fill="#1B93E7" fill-rule="nonzero" filter="url(#a)" transform="matrix(1 0 0 -1 11 155)"/><path d="M251.418 23.765L322 142h-62.69c-2.316 0-4.194-1.866-4.194-4.168 0-.549.109-1.092.32-1.6 7.23-17.28 3.085-25.92-12.436-25.92s-19.667 8.64-12.437 25.92a4.158 4.158 0 01-2.263 5.449c-.51.21-1.058.319-1.61.319H164l70.582-118.235c2.757-4.62 8.762-6.143 13.411-3.403a9.756 9.756 0 013.425 3.403z" fill-opacity=".6" fill="#1B67E7" fill-rule="nonzero" filter="url(#b)" transform="matrix(1 0 0 -1 11 174)"/><path d="M260.693 150.932L321 50h-53.564c-1.98 0-3.584 1.593-3.584 3.558 0 .468.093.933.275 1.365 6.177 14.752 2.635 22.128-10.627 22.128s-16.804-7.376-10.627-22.128a3.549 3.549 0 00-1.933-4.65 3.607 3.607 0 00-1.376-.273H186l60.307 100.932c2.356 3.943 7.487 5.244 11.46 2.905a8.332 8.332 0 002.926-2.905z" fill-opacity=".6" fill="#1B33E7" fill-rule="nonzero"/><path d="M417.26 201.64l78.861 138.371-70.643.264a4.786 4.786 0 01-4.444-6.584c8.327-20.465 3.715-30.665-13.833-30.599-17.573.066-22.25 10.327-14.032 30.785.983 2.447-.196 5.221-2.633 6.197a4.739 4.739 0 01-1.743.339l-70.793.265 79.999-139.133c3.057-5.316 9.844-7.125 15.16-4.04a11.18 11.18 0 014.101 4.134z" fill="#9020DA" fill-rule="nonzero" filter="url(#c)" transform="matrix(0 1 1 0 149.722 -125.722)"/><path d="M416.773 208.914l68.182 119.552-61.077.228a4.137 4.137 0 01-3.842-5.69c7.199-17.68 3.212-26.493-11.96-26.436-15.193.057-19.237 8.923-12.131 26.598a4.1 4.1 0 01-3.784 5.647l-61.206.229 69.165-120.21c2.643-4.592 8.51-6.155 13.107-3.49a9.663 9.663 0 013.546 3.572z" fill-opacity=".6" fill="#B120DA" fill-rule="nonzero" filter="url(#d)" transform="scale(-1 1) rotate(85 -12.594 -178.165)"/><path d="M370.143 275.854l91.499 75.926 9.354-51.912a3.573 3.573 0 00-4.265-4.121c-16.124 3.47-23.024-1.243-20.7-14.14 2.326-12.912 10.476-15.021 24.45-6.326a3.55 3.55 0 004.897-1.133 3.54 3.54 0 00.475-1.238l9.374-52.023-112.655 40.791c-4.304 1.559-6.514 6.316-4.936 10.624a8.347 8.347 0 002.507 3.552z" fill-opacity=".6" fill="#DA20D1" fill-rule="nonzero"/><path d="M90.26 201.64l78.861 138.371-70.643.264a4.786 4.786 0 01-4.444-6.584c8.327-20.465 3.715-30.665-13.833-30.599-17.573.066-22.25 10.327-14.032 30.785.983 2.447-.196 5.221-2.633 6.197a4.739 4.739 0 01-1.743.339L-9 340.678l79.999-139.133c3.057-5.316 9.844-7.125 15.16-4.04a11.18 11.18 0 014.101 4.134z" fill="#F1A446" fill-rule="nonzero" filter="url(#e)" transform="rotate(95 79.604 279.879)"/><path d="M90.147 209.794L157 327.434l-59.887.224c-2.228.008-4.047-1.8-4.065-4.04a4.064 4.064 0 01.298-1.558c7.059-17.399 3.15-26.07-11.727-26.014-14.897.056-18.862 8.78-11.895 26.172.833 2.08-.166 4.439-2.232 5.268-.47.189-.972.287-1.478.289L6 328l67.818-118.286a9.364 9.364 0 0112.852-3.435 9.492 9.492 0 013.477 3.515z" fill="#CF555A" fill-rule="nonzero" filter="url(#f)" transform="rotate(90 80.5 278.5)"/><g filter="url(#g)" transform="translate(187 184)" stroke-linejoin="round"><g filter="url(#h)"><use fill="#FFF" xlink:href="#i"/><use fill="#000" filter="url(#j)" xlink:href="#i"/><use stroke-opacity=".471" stroke="#6F6F6F" xlink:href="#i"/></g><path d="M31.023 75.95c.32.991.031 2.008-.87 3.051-13.714 1.75-17.916 7.151-12.606 16.201 5.31 9.05 11.913 8.177 19.808-2.62 1.726-.78 2.96-.437 3.704 1.025.743 1.463 7.396 13.26 19.958 35.393H72.51c13.02-22.733 19.803-34.53 20.35-35.393.547-.861 1.76-1.074 3.64-.637 8.408 10.994 15.11 11.738 20.107 2.232 7.495-14.258-12.402-15.08-13.145-16.2-.743-1.122-.743-2.112-.3-3.386.294-.849 6.907-12.582 19.838-35.2l-5.241-9.298c-25.939.077-39.517.077-40.736 0-1.218-.077-2.134-1.003-2.748-2.778C79.348 16.113 76.703 10 66.338 10s-12.942 6.113-7.733 18.34c0 1.71-.633 2.565-1.898 2.565H15.008L11 39.76c13.028 23.136 19.702 35.2 20.023 36.19z" stroke-opacity=".471" stroke="#6F6F6F" filter="url(#k)"/><path d="M26.99 77.047c.352 1.082.034 2.193-.955 3.332-15.062 1.913-19.677 7.813-13.845 17.7 5.832 9.886 13.084 8.932 21.754-2.864 1.895-.85 3.25-.477 4.067 1.12.816 1.598 8.122 14.487 21.918 38.665h12.623C86.85 110.165 94.299 97.277 94.9 96.336c.6-.942 1.933-1.174 3.998-.696 9.233 12.01 16.594 12.823 22.081 2.438 8.232-15.577-13.62-16.474-14.436-17.699-.816-1.224-.816-2.305-.33-3.697.323-.928 7.586-13.746 21.787-38.454l-5.756-10.158c-28.486.084-43.398.084-44.736 0-1.339-.084-2.345-1.096-3.018-3.034C80.06 11.679 77.156 5 65.773 5 54.39 5 51.559 11.679 57.28 25.036c0 1.868-.694 2.802-2.083 2.802H9.402L5 37.51c14.307 25.275 21.637 38.453 21.99 39.536z" stroke-opacity=".471" stroke="#6F6F6F" filter="url(#l)"/><path d="M23.777 78.143c.381 1.174.037 2.379-1.032 3.615-16.287 2.074-21.277 8.473-14.97 19.196 6.306 10.723 14.147 9.688 23.522-3.105 2.05-.923 3.515-.518 4.398 1.215.882 1.733 8.782 15.712 23.7 41.936h13.648c15.461-26.936 23.516-40.915 24.166-41.936.65-1.021 2.09-1.273 4.323-.755 9.984 13.027 17.943 13.908 23.877 2.645 8.9-16.895-14.729-17.868-15.61-19.196-.882-1.329-.882-2.501-.357-4.01.35-1.007 8.202-14.91 23.558-41.708l-6.224-11.018c-30.802.092-46.927.092-48.374 0-1.447-.091-2.534-1.188-3.263-3.29C81.164 7.243 78.022 0 65.714 0s-15.37 7.244-9.183 21.731c0 2.026-.751 3.039-2.253 3.039H4.76L0 35.262c15.47 27.413 23.397 41.707 23.777 42.881z" stroke-opacity=".471" stroke="#6F6F6F" filter="url(#m)"/></g><path d="M139.04 278.998l-90.53 62.586-4.434-48.58a3.307 3.307 0 014.266-3.454c14.593 4.495 21.338.708 20.237-11.36-1.103-12.084-8.45-14.684-22.042-7.798a3.289 3.289 0 01-4.425-1.438 3.27 3.27 0 01-.339-1.179l-4.443-48.683 100.616 46.65c3.844 1.783 5.499 6.343 3.695 10.186a7.724 7.724 0 01-2.6 3.07z" fill="#BB3B7C" fill-rule="nonzero"/></g></svg>