<?xml version="1.0" encoding="UTF-8"?>
<svg width="503px" height="380px" viewBox="0 0 503 380" version="1.1" xmlns="http://www.w3.org/2000/svg" xmlns:xlink="http://www.w3.org/1999/xlink">
    <!-- Generator: Sketch 57.1 (83088) - https://sketch.com -->
    <title>Group 5</title>
    <desc>Created with Sketch.</desc>
    <defs>
        <filter x="-8.2%" y="-10.6%" width="116.5%" height="121.1%" filterUnits="objectBoundingBox" id="filter-1">
            <feGaussianBlur stdDeviation="5" in="SourceGraphic"></feGaussianBlur>
        </filter>
        <filter x="-1.9%" y="-2.4%" width="103.8%" height="104.9%" filterUnits="objectBoundingBox" id="filter-2">
            <feGaussianBlur stdDeviation="1" in="SourceGraphic"></feGaussianBlur>
        </filter>
        <filter x="-8.4%" y="-10.4%" width="116.8%" height="120.7%" filterUnits="objectBoundingBox" id="filter-3">
            <feGaussianBlur stdDeviation="5" in="SourceGraphic"></feGaussianBlur>
        </filter>
        <filter x="-1.9%" y="-2.4%" width="103.9%" height="104.8%" filterUnits="objectBoundingBox" id="filter-4">
            <feGaussianBlur stdDeviation="1" in="SourceGraphic"></feGaussianBlur>
        </filter>
        <filter x="-8.4%" y="-10.4%" width="116.8%" height="120.7%" filterUnits="objectBoundingBox" id="filter-5">
            <feGaussianBlur stdDeviation="5" in="SourceGraphic"></feGaussianBlur>
        </filter>
        <filter x="-2.0%" y="-2.4%" width="104.0%" height="104.9%" filterUnits="objectBoundingBox" id="filter-6">
            <feGaussianBlur stdDeviation="1" in="SourceGraphic"></feGaussianBlur>
        </filter>
        <filter x="-17.7%" y="-16.7%" width="135.3%" height="133.3%" filterUnits="objectBoundingBox" id="filter-7">
            <feOffset dx="0" dy="0" in="SourceAlpha" result="shadowOffsetOuter1"></feOffset>
            <feGaussianBlur stdDeviation="3.5" in="shadowOffsetOuter1" result="shadowBlurOuter1"></feGaussianBlur>
            <feColorMatrix values="0 0 0 0 0   0 0 0 0 0   0 0 0 0 0  0 0 0 0.5 0" type="matrix" in="shadowBlurOuter1" result="shadowMatrixOuter1"></feColorMatrix>
            <feMerge>
                <feMergeNode in="shadowMatrixOuter1"></feMergeNode>
                <feMergeNode in="SourceGraphic"></feMergeNode>
            </feMerge>
        </filter>
        <path d="M35.2255976,75.0548116 C35.5062657,75.9207583 35.2526019,76.8094235 34.4646063,77.7208073 C22.4641481,79.2509436 18.7873298,83.9706447 23.4341515,91.8799107 C28.0809731,99.7891767 33.8582821,99.0257352 40.7660784,89.5895861 C42.2763385,88.9089532 43.3565861,89.2077283 44.0068213,90.4859112 C44.6570565,91.7640941 50.4782124,102.074566 61.4702889,121.417328 L71.5269134,121.417328 C82.9189585,101.549569 88.8542679,91.2390973 89.3328414,90.4859112 C89.811415,89.732725 90.8732773,89.5471508 92.5184283,89.9291886 C99.8751212,99.5373158 105.739562,100.187557 110.11175,91.8799107 C116.670033,79.4184421 99.2594017,78.7006432 98.6095702,77.7208073 C97.9597388,76.7409714 97.9597388,75.876223 98.3465135,74.7627348 C98.6043634,74.0204093 104.390656,63.7660668 115.70539,43.9997073 L111.119254,35.8733301 C88.4230372,35.9408338 76.541824,35.9408338 75.4756148,35.8733301 C74.4094056,35.8058264 73.607901,34.9966975 73.0711008,33.4459434 C77.5101832,22.7601995 75.1951677,17.4173275 66.1260544,17.4173275 C57.0569411,17.4173275 54.8014729,22.7601995 59.3596498,33.4459434 C59.3596498,34.9402419 58.8062456,35.6873912 57.6994374,35.6873912 C56.5926291,35.6873912 44.4303491,35.6873912 21.2125974,35.6873912 L17.70539,43.4261603 C29.1048603,63.6459812 34.9449295,74.1888649 35.2255976,75.0548116 Z" id="path-8"></path>
        <filter x="-0.5%" y="-0.5%" width="101.0%" height="101.0%" filterUnits="objectBoundingBox" id="filter-9">
            <feGaussianBlur stdDeviation="0" in="SourceGraphic"></feGaussianBlur>
        </filter>
        <filter x="-5.1%" y="-4.8%" width="110.2%" height="109.6%" filterUnits="objectBoundingBox" id="filter-10">
            <feMorphology radius="1" operator="erode" in="SourceAlpha" result="shadowSpreadInner1"></feMorphology>
            <feGaussianBlur stdDeviation="4" in="shadowSpreadInner1" result="shadowBlurInner1"></feGaussianBlur>
            <feOffset dx="0" dy="0" in="shadowBlurInner1" result="shadowOffsetInner1"></feOffset>
            <feComposite in="shadowOffsetInner1" in2="SourceAlpha" operator="arithmetic" k2="-1" k3="1" result="shadowInnerInner1"></feComposite>
            <feColorMatrix values="0 0 0 0 0.905882353   0 0 0 0 0.717647059   0 0 0 0 0.105882353  0 0 0 1 0" type="matrix" in="shadowInnerInner1"></feColorMatrix>
        </filter>
        <filter x="-3.1%" y="-2.9%" width="106.3%" height="105.9%" filterUnits="objectBoundingBox" id="filter-11">
            <feGaussianBlur stdDeviation="1" in="SourceGraphic"></feGaussianBlur>
        </filter>
        <filter x="-5.3%" y="-5.0%" width="110.6%" height="110.0%" filterUnits="objectBoundingBox" id="filter-12">
            <feGaussianBlur stdDeviation="2" in="SourceGraphic"></feGaussianBlur>
        </filter>
        <filter x="-7.1%" y="-6.7%" width="114.3%" height="113.5%" filterUnits="objectBoundingBox" id="filter-13">
            <feGaussianBlur stdDeviation="3" in="SourceGraphic"></feGaussianBlur>
        </filter>
    </defs>
    <g id="Page-1" stroke="none" stroke-width="1" fill="none" fill-rule="evenodd">
        <g id="Website-v1.0" transform="translate(-840.000000, -200.000000)">
            <g id="Group-5" transform="translate(851.000000, 213.000000)">
                <path d="M252.696982,5.50131915 L334,142 L261.787818,142 C259.119268,142 256.955979,139.845826 256.955979,137.188541 C256.955979,136.554665 257.081762,135.927036 257.326101,135.341715 C265.653947,115.392124 260.878581,105.417328 243,105.417328 C225.121418,105.417328 220.346052,115.392124 228.673901,135.341718 C229.698192,137.795461 228.530968,140.611464 226.066825,141.63144 C225.479021,141.874748 224.848729,142 224.212166,142 L152,142 L233.303017,5.50131915 C236.479455,0.168433879 243.395955,-1.59058311 248.751451,1.57244476 C250.376444,2.5321876 251.73317,3.88318656 252.696982,5.50131915 Z" id="Triangle" fill="#1B93E7" fill-rule="nonzero" filter="url(#filter-1)" transform="translate(243.000000, 71.000000) scale(1, -1) translate(-243.000000, -71.000000) "></path>
                <path d="M251.41826,23.7652271 L322,142 L259.310304,142 C256.99365,142 255.11563,140.134061 255.11563,137.832328 C255.11563,137.283266 255.224826,136.739616 255.436945,136.232613 C262.666614,118.952332 258.520966,110.312192 243,110.312192 C227.479034,110.312192 223.333386,118.952333 230.563056,136.232615 C231.452276,138.35804 230.438972,140.797254 228.299771,141.680754 C227.78948,141.891507 227.242303,142 226.689682,142 L164,142 L234.58174,23.7652271 C237.339307,19.145897 243.343741,17.6222414 247.993018,20.3620472 C249.403726,21.1933738 250.581543,22.3636053 251.41826,23.7652271 Z" id="Triangle" fill-opacity="0.6" fill="#1B67E7" fill-rule="nonzero" filter="url(#filter-2)" transform="translate(243.000000, 80.500000) scale(1, -1) translate(-243.000000, -80.500000) "></path>
                <path d="M249.692817,41.0678768 L310,142 L256.436019,142 C254.4566,142 252.851962,140.407125 252.851962,138.442231 C252.851962,137.97352 252.945263,137.509428 253.126503,137.076621 C259.303752,122.325162 255.761585,114.949432 242.5,114.949432 C229.238415,114.949432 225.696248,122.325162 231.873498,137.076622 C232.633274,138.89101 231.767476,140.973266 229.939678,141.727473 C229.503669,141.907384 229.036145,142 228.563969,142 L175,142 L235.307183,41.0678768 C237.663332,37.1245462 242.793703,35.8238646 246.766186,38.1627232 C247.971538,38.8723922 248.977901,39.8713703 249.692817,41.0678768 Z" id="Triangle" fill-opacity="0.6" fill="#1B33E7" fill-rule="nonzero" transform="translate(242.500000, 89.500000) scale(1, -1) translate(-242.500000, -89.500000) "></path>
                <path d="M417.26018,201.639136 L496.12101,340.011104 L425.47792,340.275458 C422.849969,340.28527 420.703289,338.157994 420.683176,335.52403 C420.678375,334.895178 420.797703,334.272069 421.034291,333.690567 C429.360541,313.22583 424.749312,303.026297 407.200602,303.091965 C389.628342,303.157723 384.951307,313.419457 393.169496,333.877169 C394.152385,336.323859 392.973316,339.098112 390.535985,340.073633 C389.981738,340.295466 389.390351,340.41051 388.792753,340.412746 L318,340.677753 L397.998914,201.545342 C401.055518,196.229361 407.842844,194.420298 413.158831,197.504689 C414.866181,198.495311 416.281688,199.922241 417.26018,201.639136 Z" id="Triangle" fill="#9020DA" fill-rule="nonzero" filter="url(#filter-3)" transform="translate(407.060505, 268.338877) scale(1, -1) rotate(270.000000) translate(-407.060505, -268.338877) "></path>
                <path d="M416.772962,208.913827 L484.954519,328.465697 L423.877863,328.694096 C421.605787,328.702574 419.749808,326.86463 419.732419,324.588915 C419.728268,324.045593 419.831437,323.507234 420.035986,323.004823 C427.234702,305.323513 423.247922,296.511228 408.075645,296.567965 C392.883006,296.624778 388.839332,305.490805 395.94462,323.166045 C396.794407,325.279958 395.775007,327.676883 393.667737,328.519722 C393.188546,328.711383 392.677244,328.81078 392.160572,328.812712 L330.954519,329.041675 L400.120042,208.83279 C402.762723,204.239841 408.630915,202.67683 413.227015,205.34171 C414.703157,206.197597 415.926977,207.430448 416.772962,208.913827 Z" id="Triangle" fill-opacity="0.6" fill="#B120DA" fill-rule="nonzero" filter="url(#filter-4)" transform="translate(407.954519, 266.541675) scale(1, -1) rotate(265.000000) translate(-407.954519, -266.541675) "></path>
                <path d="M417.115928,214.209539 L476,317.502355 L423.251978,317.699692 C421.289731,317.707017 419.68684,316.119033 419.671823,314.152815 C419.668237,313.683385 419.757338,313.218243 419.933994,312.784159 C426.151066,297.507508 422.707938,289.893693 409.604608,289.942714 C396.483693,289.991801 392.991429,297.652048 399.127814,312.923455 C399.861721,314.749876 398.98133,316.820819 397.161415,317.549032 C396.747569,317.714628 396.305989,317.800506 395.859773,317.802175 L343,318 L402.73386,214.139524 C405.016176,210.171215 410.084159,208.820774 414.053519,211.12323 C415.328369,211.862716 416.385305,212.9279 417.115928,214.209539 Z" id="Triangle" fill-opacity="0.6" fill="#DA20D1" fill-rule="nonzero" transform="translate(409.500000, 264.000000) scale(1, -1) rotate(260.000000) translate(-409.500000, -264.000000) "></path>
                <path d="M90.2601797,201.639135 L169.12101,340.011104 L98.4779211,340.275458 C95.8499696,340.285271 93.7032896,338.157994 93.683177,335.524029 C93.6783751,334.895178 93.7977025,334.27207 94.0342919,333.690567 C102.360541,313.225831 97.7493114,303.026297 80.200603,303.091966 C62.6283419,303.157723 57.9513063,313.419458 66.1694962,333.877169 C67.1523847,336.323859 65.9733166,339.098113 63.5359859,340.073633 C62.9817396,340.295466 62.3903515,340.41051 61.7927541,340.412746 L-9,340.677754 L70.9989136,201.545343 C74.0555181,196.229362 80.8428445,194.420299 86.1588311,197.504688 C87.8661819,198.495312 89.2816887,199.922241 90.2601797,201.639135 Z" id="Triangle" fill="#F1A446" fill-rule="nonzero" filter="url(#filter-5)" transform="translate(80.060505, 268.338877) scale(-1, -1) rotate(275.000000) translate(-80.060505, -268.338877) "></path>
                <path d="M90.1466549,209.794196 L157,327.433238 L97.113149,327.657982 C94.8853339,327.666325 93.0655111,325.857788 93.0484608,323.618483 C93.04439,323.083855 93.1455485,322.55411 93.3461143,322.059737 C100.404595,304.661329 96.4954786,295.99004 81.6187666,296.045869 C66.7220881,296.101774 62.7571859,304.825944 69.7240601,322.21838 C70.5572923,324.29847 69.5577512,326.657044 67.4915326,327.486398 C67.0216768,327.674993 66.5203344,327.772799 66.0137282,327.7747 L6,328 L73.8181422,209.714458 C76.4093428,205.194995 82.1632193,203.656993 86.6697847,206.279233 C88.1171714,207.121427 89.3171507,208.334553 90.1466549,209.794196 Z" id="Triangle" fill="#CF555A" fill-rule="nonzero" filter="url(#filter-6)" transform="translate(81.500000, 266.500000) scale(-1, -1) rotate(270.000000) translate(-81.500000, -266.500000) "></path>
                <g id="Group-4" filter="url(#filter-7)" transform="translate(176.000000, 171.000000)" stroke-linejoin="round">
                    <g id="Combined-Shape" filter="url(#filter-9)">
                        <use fill="#FFFFFF" fill-rule="evenodd" xlink:href="#path-8"></use>
                        <use fill="black" fill-opacity="1" filter="url(#filter-10)" xlink:href="#path-8"></use>
                        <use stroke-opacity="0.471290428" stroke="#6F6F6F" stroke-width="1" xlink:href="#path-8"></use>
                    </g>
                    <path d="M31.0230944,75.9505828 C31.3438579,76.9414256 31.0539565,77.9582637 30.1533901,79.0010971 C16.4385807,80.7519261 12.2365027,86.1523533 17.547156,95.2023789 C22.8578093,104.252404 29.4604482,103.378851 37.3550725,92.581719 C39.081084,91.8029179 40.3156528,92.1447854 41.0587787,93.6073217 C41.8019047,95.0698579 48.4546542,106.867417 61.0170274,129 L72.5103125,129 C85.5297926,106.2667 92.3130033,94.4691405 92.8599445,93.6073217 C93.4068857,92.7455029 94.6204426,92.5331632 96.5006152,92.9703026 C104.908264,103.964217 111.610482,104.708243 116.607269,95.2023789 C124.102449,80.943583 104.204585,80.1222555 103.46192,79.0010971 C102.719256,77.8799387 102.719256,76.8904669 103.161284,75.6163794 C103.45597,74.7669878 110.068875,63.0336536 123,40.4163769 L117.758702,31.117926 C91.8201683,31.1951659 78.2416389,31.1951659 77.0231141,31.117926 C75.8045893,31.0406862 74.888584,30.114856 74.2750981,28.3404354 C79.3483351,16.1134785 76.7026031,10 66.3379022,10 C55.9732012,10 53.3955233,16.1134785 58.6048683,28.3404354 C58.6048683,30.0502578 57.9724065,30.905169 56.7074827,30.905169 C55.442559,30.905169 41.5428105,30.905169 15.0082371,30.905169 L11,39.7601067 C24.0279661,62.8962479 30.7023309,74.9597399 31.0230944,75.9505828 Z" id="Combined-Shape" stroke-opacity="0.471290428" stroke="#6F6F6F" filter="url(#filter-11)"></path>
                    <path d="M26.9896483,77.0468551 C27.3419154,78.1292885 27.0235415,79.24012 26.0345266,80.3793498 C10.9727271,82.2920201 6.35794495,88.1916465 12.1901803,98.078229 C18.0224156,107.964811 25.2735279,107.01051 33.9435172,95.2153233 C35.8390477,94.3645321 37.1948687,94.7380009 38.0109802,96.3357295 C38.8270917,97.9334582 46.1332363,110.821548 59.929414,135 L72.5515039,135 C86.849683,110.165302 94.2991018,97.2772123 94.8997605,96.3357295 C95.5004191,95.3942468 96.8331647,95.1622791 98.8979971,95.6398264 C108.131397,107.649985 115.491869,108.462786 120.979411,98.078229 C129.210725,82.5013932 107.358607,81.6041446 106.543002,80.3793498 C105.727397,79.1545549 105.727397,78.0736193 106.212839,76.681759 C106.536467,75.7538522 113.798854,62.9359241 128,38.2279748 L122.243932,28.0700032 C93.7578634,28.1543829 78.8457284,28.1543829 77.5075271,28.0700032 C76.1693258,27.9856236 75.1633556,26.9742124 74.4896167,25.0357698 C80.061118,11.6785899 77.1555373,5 65.7728747,5 C54.3902121,5 51.5593693,11.6785899 57.2803465,25.0357698 C57.2803465,26.9036429 56.5857678,27.8375795 55.1966105,27.8375795 C53.8074532,27.8375795 38.5425508,27.8375795 9.40190322,27.8375795 L5,37.511041 C19.3074985,62.785817 26.6373813,75.9644218 26.9896483,77.0468551 Z" id="Combined-Shape" stroke-opacity="0.471290428" stroke="#6F6F6F" filter="url(#filter-12)"></path>
                    <path d="M23.7774246,78.1431275 C24.1583313,79.3171513 23.8140733,80.5219763 22.7446507,81.7576024 C6.45831462,83.8321141 1.46834698,90.2309397 7.77474779,100.954079 C14.0811486,111.677219 21.9217822,110.642168 31.2966486,97.8489275 C33.3462873,96.9261464 34.8123377,97.3312164 35.6947997,99.0641374 C36.5772618,100.797059 44.4774019,114.775679 59.39522,141 L73.0434961,141 C88.5041288,114.063905 96.5591914,100.085284 97.2086841,99.0641374 C97.8581768,98.0429908 99.2992756,97.791395 101.531981,98.3093501 C111.516064,111.335753 119.474948,112.21733 125.408632,100.954079 C134.309158,84.0592034 110.680444,83.0860338 109.79853,81.7576024 C108.916616,80.4291711 108.916616,79.2567717 109.441525,77.7471387 C109.791464,76.7407166 117.644289,62.8381946 133,36.0395726 L126.775959,25.0220804 C95.9739498,25.1135999 79.8494462,25.1135999 78.402448,25.0220804 C76.9554498,24.930561 75.8676935,23.8335689 75.139179,21.7311041 C81.1636479,7.24370138 78.0218412,0 65.7137588,0 C53.4056765,0 50.3446839,7.24370138 56.5307811,21.7311041 C56.5307811,23.7570281 55.7797327,24.7699901 54.2776358,24.7699901 C52.7755388,24.7699901 36.2695874,24.7699901 4.75978153,24.7699901 L0,35.2619752 C15.4707097,62.6753862 23.3965179,76.9691036 23.7774246,78.1431275 Z" id="Combined-Shape" stroke-opacity="0.471290428" stroke="#6F6F6F" filter="url(#filter-13)"></path>
                </g>
                <path d="M88.5433017,216.897721 L143,312.539218 L94.2179955,312.721937 C92.4032852,312.728719 90.920913,311.258364 90.9070244,309.437791 C90.9037084,309.003134 90.986109,308.572447 91.1494839,308.170518 C96.8991069,294.025471 93.7148601,286.975642 81.5967436,287.021032 C69.4623631,287.066483 66.2326746,294.159304 71.9076781,308.299496 C72.5864037,309.990626 71.7722079,311.908166 70.0891292,312.582437 C69.7063989,312.735766 69.2980208,312.815284 68.8853548,312.816829 L20,313 L75.2425926,216.832892 C77.3533057,213.158533 82.0402382,211.908124 85.7111491,214.040027 C86.8901462,214.724738 87.8676128,215.711019 88.5433017,216.897721 Z" id="Triangle" fill="#BB3B7C" fill-rule="nonzero" transform="translate(81.500000, 263.000000) scale(-1, -1) rotate(265.000000) translate(-81.500000, -263.000000) "></path>
            </g>
        </g>
    </g>
</svg>