<?xml version="1.0" encoding="utf-8"?>
<!-- Generator: Adobe Illustrator 23.0.4, SVG Export Plug-In . SVG Version: 6.00 Build 0)  -->
<svg version="1.1" id="Layer_1" xmlns="http://www.w3.org/2000/svg" xmlns:xlink="http://www.w3.org/1999/xlink" x="0px" y="0px"
	 viewBox="0 0 382 189" style="enable-background:new 0 0 382 189;" xml:space="preserve">
<style type="text/css">
	.st0{fill-rule:evenodd;clip-rule:evenodd;}
	.st1{enable-background:new    ;}
	.st2{fill:#D8D8D8;}
</style>
<title>Group 6</title>
<desc>Created with Sketch.</desc>
<g id="Page-1">
	<g transform="translate(-167.000000, -1138.000000)">
		<g id="Group-6" transform="translate(167.000000, 1138.000000)">
			<rect id="Rectangle" class="st0" width="382" height="189"/>
			<g class="st1">
				<path class="st2" d="M112.7,18.3c0,0.1-0.1,0.1-0.1,0.1c0,0-0.1,0-0.2,0c-0.1,0-0.2,0-0.3-0.1s-0.2-0.1-0.4-0.2
					s-0.3-0.2-0.5-0.2c-0.2-0.1-0.5-0.1-0.8-0.1c-0.4,0-0.7,0.1-1,0.2c-0.3,0.1-0.6,0.3-0.8,0.6c-0.2,0.3-0.4,0.6-0.5,1
					s-0.2,0.8-0.2,1.3c0,0.5,0.1,0.9,0.2,1.3c0.1,0.4,0.3,0.7,0.5,1s0.4,0.5,0.7,0.6c0.3,0.1,0.6,0.2,1,0.2c0.3,0,0.6,0,0.9-0.1
					c0.2-0.1,0.4-0.2,0.6-0.3c0.1-0.1,0.3-0.2,0.4-0.3c0.1-0.1,0.2-0.1,0.3-0.1c0.1,0,0.2,0,0.3,0.1l0.4,0.5
					c-0.4,0.4-0.8,0.7-1.3,0.9c-0.5,0.2-1.1,0.3-1.7,0.3c-0.5,0-1-0.1-1.4-0.3s-0.8-0.5-1.1-0.8c-0.3-0.4-0.6-0.8-0.8-1.3
					c-0.2-0.5-0.3-1.1-0.3-1.8c0-0.6,0.1-1.2,0.3-1.7c0.2-0.5,0.4-1,0.7-1.3c0.3-0.4,0.7-0.7,1.2-0.9s1-0.3,1.6-0.3
					c0.6,0,1.1,0.1,1.5,0.3c0.4,0.2,0.8,0.4,1.2,0.8L112.7,18.3z"/>
				<path class="st2" d="M117.9,16.8c0.6,0,1.1,0.1,1.6,0.3c0.5,0.2,0.9,0.5,1.2,0.8c0.3,0.4,0.6,0.8,0.8,1.3s0.3,1.1,0.3,1.7
					c0,0.6-0.1,1.2-0.3,1.7s-0.4,0.9-0.8,1.3c-0.3,0.4-0.7,0.6-1.2,0.8c-0.5,0.2-1,0.3-1.6,0.3c-0.6,0-1.1-0.1-1.6-0.3
					c-0.5-0.2-0.9-0.5-1.2-0.8c-0.3-0.4-0.6-0.8-0.8-1.3c-0.2-0.5-0.3-1.1-0.3-1.7c0-0.6,0.1-1.2,0.3-1.7c0.2-0.5,0.4-1,0.8-1.3
					c0.3-0.4,0.7-0.6,1.2-0.8C116.8,16.9,117.3,16.8,117.9,16.8z M117.9,24c0.8,0,1.4-0.3,1.8-0.8c0.4-0.5,0.6-1.3,0.6-2.2
					c0-1-0.2-1.7-0.6-2.3c-0.4-0.5-1-0.8-1.8-0.8c-0.4,0-0.8,0.1-1.1,0.2c-0.3,0.1-0.5,0.3-0.7,0.6c-0.2,0.3-0.3,0.6-0.4,1
					c-0.1,0.4-0.1,0.8-0.1,1.3c0,0.5,0,0.9,0.1,1.3s0.2,0.7,0.4,1s0.4,0.5,0.7,0.6C117.2,23.9,117.5,24,117.9,24z"/>
				<path class="st2" d="M123.5,25v-8.1h0.8c0.2,0,0.3,0.1,0.4,0.3l0.1,0.8c0.3-0.4,0.6-0.7,1-0.9s0.8-0.4,1.3-0.4
					c0.5,0,1,0.2,1.3,0.5c0.3,0.3,0.6,0.7,0.7,1.2c0.1-0.3,0.3-0.5,0.4-0.8c0.2-0.2,0.4-0.4,0.6-0.5c0.2-0.1,0.5-0.2,0.7-0.3
					c0.3-0.1,0.5-0.1,0.8-0.1c0.4,0,0.8,0.1,1.1,0.2c0.3,0.1,0.6,0.3,0.8,0.6c0.2,0.3,0.4,0.6,0.5,1c0.1,0.4,0.2,0.8,0.2,1.3V25
					h-1.4v-5.2c0-0.6-0.1-1.1-0.4-1.4c-0.3-0.3-0.7-0.5-1.2-0.5c-0.2,0-0.5,0-0.7,0.1c-0.2,0.1-0.4,0.2-0.6,0.4
					c-0.2,0.2-0.3,0.4-0.4,0.6c-0.1,0.2-0.1,0.5-0.1,0.8V25h-1.4v-5.2c0-0.7-0.1-1.1-0.4-1.5c-0.3-0.3-0.6-0.5-1.1-0.5
					c-0.4,0-0.7,0.1-1,0.3c-0.3,0.2-0.6,0.4-0.8,0.8v6H123.5z"/>
				<path class="st2" d="M136.7,27.7V16.9h0.8c0.2,0,0.3,0.1,0.4,0.3l0.1,1c0.3-0.4,0.7-0.8,1.2-1s1-0.4,1.5-0.4
					c0.5,0,0.9,0.1,1.3,0.3c0.4,0.2,0.7,0.4,1,0.8c0.3,0.3,0.5,0.8,0.6,1.3c0.1,0.5,0.2,1.1,0.2,1.8c0,0.6-0.1,1.2-0.2,1.7
					c-0.2,0.5-0.4,1-0.7,1.3c-0.3,0.4-0.7,0.7-1.1,0.9c-0.4,0.2-0.9,0.3-1.5,0.3c-0.5,0-0.9-0.1-1.3-0.2c-0.4-0.2-0.7-0.4-0.9-0.7
					v3.6H136.7z M140.3,17.9c-0.5,0-0.9,0.1-1.2,0.3c-0.3,0.2-0.7,0.5-1,0.9V23c0.3,0.4,0.5,0.6,0.9,0.7s0.7,0.2,1,0.2
					c0.8,0,1.3-0.3,1.7-0.8c0.4-0.5,0.6-1.3,0.6-2.3c0-0.5,0-1-0.1-1.4c-0.1-0.4-0.2-0.7-0.4-0.9c-0.2-0.2-0.4-0.4-0.6-0.5
					C140.9,18,140.6,17.9,140.3,17.9z"/>
				<path class="st2" d="M148.8,16.8c0.6,0,1.1,0.1,1.6,0.3c0.5,0.2,0.9,0.5,1.2,0.8c0.3,0.4,0.6,0.8,0.8,1.3s0.3,1.1,0.3,1.7
					c0,0.6-0.1,1.2-0.3,1.7s-0.4,0.9-0.8,1.3c-0.3,0.4-0.7,0.6-1.2,0.8c-0.5,0.2-1,0.3-1.6,0.3c-0.6,0-1.1-0.1-1.6-0.3
					c-0.5-0.2-0.9-0.5-1.2-0.8c-0.3-0.4-0.6-0.8-0.8-1.3c-0.2-0.5-0.3-1.1-0.3-1.7c0-0.6,0.1-1.2,0.3-1.7c0.2-0.5,0.4-1,0.8-1.3
					c0.3-0.4,0.7-0.6,1.2-0.8C147.7,16.9,148.2,16.8,148.8,16.8z M148.8,24c0.8,0,1.4-0.3,1.8-0.8c0.4-0.5,0.6-1.3,0.6-2.2
					c0-1-0.2-1.7-0.6-2.3c-0.4-0.5-1-0.8-1.8-0.8c-0.4,0-0.8,0.1-1.1,0.2c-0.3,0.1-0.5,0.3-0.7,0.6c-0.2,0.3-0.3,0.6-0.4,1
					c-0.1,0.4-0.1,0.8-0.1,1.3c0,0.5,0,0.9,0.1,1.3s0.2,0.7,0.4,1s0.4,0.5,0.7,0.6C148,23.9,148.4,24,148.8,24z"/>
				<path class="st2" d="M154.4,25v-8.1h0.8c0.2,0,0.3,0.1,0.4,0.3l0.1,0.9c0.4-0.4,0.7-0.7,1.2-0.9s0.9-0.4,1.5-0.4
					c0.4,0,0.8,0.1,1.2,0.2c0.3,0.1,0.6,0.4,0.8,0.6c0.2,0.3,0.4,0.6,0.5,1s0.2,0.8,0.2,1.3V25h-1.4v-5.2c0-0.6-0.1-1.1-0.4-1.4
					c-0.3-0.3-0.7-0.5-1.3-0.5c-0.4,0-0.8,0.1-1.2,0.3c-0.4,0.2-0.7,0.5-1,0.8v6H154.4z"/>
				<path class="st2" d="M166.5,16.8c0.5,0,0.9,0.1,1.3,0.2c0.4,0.2,0.8,0.4,1.1,0.7c0.3,0.3,0.5,0.7,0.7,1.1c0.2,0.5,0.3,1,0.3,1.5
					c0,0.2,0,0.4-0.1,0.4c0,0.1-0.1,0.1-0.3,0.1h-5.4c0,0.5,0.1,1,0.2,1.3s0.3,0.7,0.5,0.9c0.2,0.3,0.5,0.4,0.8,0.6
					c0.3,0.1,0.7,0.2,1,0.2c0.4,0,0.7,0,0.9-0.1s0.5-0.2,0.7-0.3c0.2-0.1,0.3-0.2,0.5-0.3c0.1-0.1,0.2-0.1,0.3-0.1
					c0.1,0,0.2,0,0.3,0.1l0.4,0.5c-0.2,0.2-0.4,0.4-0.6,0.6c-0.2,0.2-0.5,0.3-0.8,0.4c-0.3,0.1-0.6,0.2-0.9,0.2
					c-0.3,0.1-0.6,0.1-0.9,0.1c-0.6,0-1.1-0.1-1.5-0.3c-0.5-0.2-0.9-0.5-1.2-0.8c-0.3-0.4-0.6-0.8-0.8-1.4c-0.2-0.5-0.3-1.2-0.3-1.9
					c0-0.6,0.1-1.1,0.3-1.6c0.2-0.5,0.4-0.9,0.7-1.3c0.3-0.4,0.7-0.6,1.2-0.8S165.9,16.8,166.5,16.8z M166.5,17.8
					c-0.7,0-1.2,0.2-1.6,0.6c-0.4,0.4-0.6,0.9-0.7,1.7h4.4c0-0.3,0-0.6-0.1-0.9c-0.1-0.3-0.2-0.5-0.4-0.7c-0.2-0.2-0.4-0.4-0.6-0.5
					S166.9,17.8,166.5,17.8z"/>
				<path class="st2" d="M171.7,25v-8.1h0.8c0.2,0,0.3,0.1,0.4,0.3l0.1,0.9c0.4-0.4,0.7-0.7,1.2-0.9s0.9-0.4,1.5-0.4
					c0.4,0,0.8,0.1,1.2,0.2c0.3,0.1,0.6,0.4,0.8,0.6c0.2,0.3,0.4,0.6,0.5,1s0.2,0.8,0.2,1.3V25H177v-5.2c0-0.6-0.1-1.1-0.4-1.4
					c-0.3-0.3-0.7-0.5-1.3-0.5c-0.4,0-0.8,0.1-1.2,0.3c-0.4,0.2-0.7,0.5-1,0.8v6H171.7z"/>
				<path class="st2" d="M183,25.1c-0.6,0-1.1-0.2-1.5-0.5c-0.3-0.4-0.5-0.9-0.5-1.5v-5h-1c-0.1,0-0.2,0-0.2-0.1s-0.1-0.1-0.1-0.2
					v-0.6l1.3-0.2l0.3-2.5c0-0.1,0-0.1,0.1-0.2s0.1-0.1,0.2-0.1h0.7v2.8h2.3v1h-2.3V23c0,0.3,0.1,0.6,0.2,0.8
					c0.2,0.2,0.4,0.2,0.6,0.2c0.1,0,0.3,0,0.4-0.1s0.2-0.1,0.3-0.1c0.1,0,0.1-0.1,0.2-0.1c0.1,0,0.1-0.1,0.1-0.1
					c0.1,0,0.1,0,0.2,0.1l0.4,0.7c-0.2,0.2-0.5,0.4-0.9,0.5C183.8,25.1,183.4,25.1,183,25.1z"/>
				<path class="st2" d="M188.5,18.6h0.6c0.2,0,0.4,0,0.5-0.1s0.2-0.1,0.3-0.3l3.8-4.3c0.1-0.1,0.2-0.2,0.3-0.3s0.2-0.1,0.4-0.1h1.3
					l-4.4,4.9c-0.1,0.1-0.2,0.2-0.3,0.3s-0.2,0.2-0.3,0.2c0.1,0,0.3,0.1,0.4,0.2s0.2,0.2,0.4,0.4l4.6,5.4h-1.3c-0.1,0-0.2,0-0.3,0
					c-0.1,0-0.1,0-0.2-0.1s-0.1-0.1-0.1-0.1c0,0-0.1-0.1-0.1-0.1l-4-4.6c-0.1-0.1-0.1-0.1-0.2-0.2c-0.1,0-0.1-0.1-0.2-0.1
					s-0.1-0.1-0.2-0.1c-0.1,0-0.2,0-0.3,0h-0.7V25h-1.5V13.5h1.5V18.6z"/>
				<path class="st2" d="M199.3,14.4c0,0.1,0,0.3-0.1,0.4c-0.1,0.1-0.1,0.2-0.2,0.3c-0.1,0.1-0.2,0.2-0.3,0.2
					c-0.1,0.1-0.3,0.1-0.4,0.1s-0.3,0-0.4-0.1c-0.1-0.1-0.2-0.1-0.3-0.2c-0.1-0.1-0.2-0.2-0.2-0.3s-0.1-0.2-0.1-0.4
					c0-0.1,0-0.3,0.1-0.4s0.1-0.2,0.2-0.3c0.1-0.1,0.2-0.2,0.3-0.2c0.1-0.1,0.2-0.1,0.4-0.1s0.3,0,0.4,0.1c0.1,0.1,0.2,0.1,0.3,0.2
					c0.1,0.1,0.2,0.2,0.2,0.3C199.3,14.1,199.3,14.2,199.3,14.4z M199,16.9V25h-1.4v-8.1H199z"/>
				<path class="st2" d="M201.5,25v-8.1h0.8c0.2,0,0.3,0.1,0.4,0.3l0.1,0.9c0.4-0.4,0.7-0.7,1.2-0.9c0.4-0.2,0.9-0.4,1.5-0.4
					c0.4,0,0.8,0.1,1.2,0.2s0.6,0.4,0.8,0.6c0.2,0.3,0.4,0.6,0.5,1s0.2,0.8,0.2,1.3V25h-1.4v-5.2c0-0.6-0.1-1.1-0.4-1.4
					c-0.3-0.3-0.7-0.5-1.3-0.5c-0.4,0-0.8,0.1-1.2,0.3c-0.4,0.2-0.7,0.5-1,0.8v6H201.5z"/>
				<path class="st2" d="M216.1,25c-0.2,0-0.3-0.1-0.4-0.3l-0.1-1c-0.3,0.4-0.7,0.8-1.2,1c-0.4,0.3-1,0.4-1.5,0.4
					c-0.5,0-0.9-0.1-1.3-0.3s-0.7-0.4-1-0.8c-0.3-0.3-0.5-0.8-0.6-1.3c-0.1-0.5-0.2-1.1-0.2-1.8c0-0.6,0.1-1.2,0.2-1.7
					s0.4-1,0.7-1.3c0.3-0.4,0.7-0.7,1.1-0.9s0.9-0.3,1.5-0.3c0.5,0,0.9,0.1,1.3,0.3s0.7,0.4,0.9,0.7v-4.5h1.4V25H216.1z M213.4,24
					c0.5,0,0.9-0.1,1.2-0.3c0.3-0.2,0.7-0.5,1-0.9v-3.9c-0.3-0.4-0.5-0.6-0.9-0.7s-0.7-0.2-1-0.2c-0.8,0-1.3,0.3-1.7,0.8
					c-0.4,0.5-0.6,1.3-0.6,2.3c0,0.5,0,1,0.1,1.4c0.1,0.4,0.2,0.7,0.4,0.9c0.2,0.2,0.4,0.4,0.6,0.5S213,24,213.4,24z"/>
				<path class="st2" d="M224,18.2c-0.1,0.1-0.2,0.2-0.3,0.2c-0.1,0-0.2,0-0.3-0.1s-0.2-0.1-0.4-0.2c-0.1-0.1-0.3-0.1-0.5-0.2
					s-0.4-0.1-0.7-0.1c-0.2,0-0.5,0-0.6,0.1c-0.2,0.1-0.4,0.1-0.5,0.3c-0.1,0.1-0.2,0.2-0.3,0.4c-0.1,0.1-0.1,0.3-0.1,0.5
					c0,0.2,0.1,0.4,0.2,0.5c0.1,0.1,0.3,0.3,0.5,0.4c0.2,0.1,0.4,0.2,0.7,0.3c0.2,0.1,0.5,0.2,0.8,0.2s0.5,0.2,0.8,0.3
					c0.3,0.1,0.5,0.2,0.7,0.4s0.4,0.4,0.5,0.6c0.1,0.2,0.2,0.5,0.2,0.8c0,0.4-0.1,0.7-0.2,1c-0.1,0.3-0.3,0.6-0.6,0.8
					c-0.3,0.2-0.6,0.4-1,0.5c-0.4,0.1-0.8,0.2-1.3,0.2c-0.6,0-1.1-0.1-1.5-0.3c-0.5-0.2-0.8-0.4-1.2-0.7l0.3-0.5
					c0-0.1,0.1-0.1,0.2-0.2c0.1,0,0.1-0.1,0.2-0.1c0.1,0,0.2,0,0.3,0.1c0.1,0.1,0.2,0.2,0.4,0.2s0.3,0.2,0.6,0.2
					c0.2,0.1,0.5,0.1,0.8,0.1c0.3,0,0.5,0,0.7-0.1s0.4-0.2,0.5-0.3s0.2-0.3,0.3-0.4s0.1-0.3,0.1-0.5c0-0.2-0.1-0.4-0.2-0.6
					s-0.3-0.3-0.5-0.4c-0.2-0.1-0.4-0.2-0.7-0.3c-0.3-0.1-0.5-0.2-0.8-0.2c-0.3-0.1-0.5-0.2-0.8-0.3s-0.5-0.2-0.7-0.4
					c-0.2-0.2-0.4-0.4-0.5-0.6c-0.1-0.2-0.2-0.5-0.2-0.9c0-0.3,0.1-0.6,0.2-0.9c0.1-0.3,0.3-0.5,0.6-0.8c0.2-0.2,0.5-0.4,0.9-0.5
					c0.4-0.1,0.8-0.2,1.2-0.2c0.5,0,1,0.1,1.4,0.3c0.4,0.2,0.8,0.4,1.1,0.7L224,18.2z"/>
				<path class="st2" d="M226.2,18.1c0-0.1,0-0.3,0.1-0.4c0-0.1,0.1-0.2,0.2-0.3s0.2-0.2,0.3-0.2c0.1-0.1,0.3-0.1,0.4-0.1
					s0.3,0,0.4,0.1c0.1,0.1,0.2,0.1,0.3,0.2s0.2,0.2,0.2,0.3c0.1,0.1,0.1,0.3,0.1,0.4c0,0.1,0,0.3-0.1,0.4c-0.1,0.1-0.1,0.2-0.2,0.3
					s-0.2,0.2-0.3,0.2s-0.3,0.1-0.4,0.1s-0.3,0-0.4-0.1c-0.1-0.1-0.2-0.1-0.3-0.2s-0.2-0.2-0.2-0.3
					C226.2,18.4,226.2,18.3,226.2,18.1z M226.2,24.1c0-0.1,0-0.3,0.1-0.4c0-0.1,0.1-0.2,0.2-0.3s0.2-0.2,0.3-0.2
					c0.1-0.1,0.3-0.1,0.4-0.1s0.3,0,0.4,0.1c0.1,0.1,0.2,0.1,0.3,0.2s0.2,0.2,0.2,0.3c0.1,0.1,0.1,0.3,0.1,0.4c0,0.1,0,0.3-0.1,0.4
					c-0.1,0.1-0.1,0.2-0.2,0.3s-0.2,0.2-0.3,0.2s-0.3,0.1-0.4,0.1s-0.3,0-0.4-0.1c-0.1-0.1-0.2-0.1-0.3-0.2s-0.2-0.2-0.2-0.3
					C226.2,24.4,226.2,24.3,226.2,24.1z"/>
			</g>
			<g>
			</g>
			<g class="st1">
				<path class="st2" d="M106.8,38.6h4v1.2h-4V38.6z"/>
				<path class="st2" d="M118.5,35.8c0.4,0,0.7,0,1,0.1s0.6,0.2,0.8,0.3h2.2v0.5c0,0.2-0.1,0.3-0.3,0.3l-0.9,0.1
					c0.2,0.3,0.3,0.7,0.3,1.2c0,0.4-0.1,0.8-0.2,1.1c-0.2,0.3-0.4,0.6-0.6,0.8c-0.3,0.2-0.6,0.4-1,0.5c-0.4,0.1-0.8,0.2-1.2,0.2
					c-0.4,0-0.7,0-1.1-0.1c-0.2,0.1-0.3,0.2-0.4,0.4c-0.1,0.1-0.1,0.3-0.1,0.4c0,0.2,0.1,0.3,0.2,0.5c0.2,0.1,0.4,0.2,0.6,0.2
					c0.3,0,0.5,0.1,0.9,0.1s0.7,0,1,0c0.3,0,0.7,0,1,0.1c0.3,0.1,0.6,0.2,0.9,0.3c0.3,0.1,0.5,0.3,0.6,0.6c0.2,0.2,0.2,0.5,0.2,0.9
					c0,0.4-0.1,0.7-0.3,1c-0.2,0.3-0.4,0.6-0.7,0.9c-0.3,0.3-0.7,0.5-1.2,0.6c-0.5,0.2-1,0.2-1.6,0.2c-0.6,0-1.1-0.1-1.6-0.2
					c-0.4-0.1-0.8-0.3-1.1-0.5c-0.3-0.2-0.5-0.4-0.7-0.7c-0.1-0.3-0.2-0.5-0.2-0.8c0-0.4,0.1-0.7,0.4-1c0.3-0.3,0.6-0.5,1-0.7
					c-0.2-0.1-0.4-0.2-0.5-0.4c-0.1-0.2-0.2-0.4-0.2-0.7c0-0.1,0-0.2,0.1-0.4c0-0.1,0.1-0.2,0.2-0.4s0.2-0.2,0.3-0.4
					c0.1-0.1,0.3-0.2,0.4-0.3c-0.4-0.2-0.7-0.5-0.9-0.9c-0.2-0.4-0.3-0.8-0.3-1.3c0-0.4,0.1-0.8,0.2-1.1c0.2-0.3,0.4-0.6,0.6-0.8
					s0.6-0.4,1-0.5C117.7,35.8,118.1,35.8,118.5,35.8z M121.1,44.4c0-0.2-0.1-0.4-0.2-0.5c-0.1-0.1-0.3-0.2-0.5-0.3
					c-0.2-0.1-0.4-0.1-0.7-0.2c-0.3,0-0.5,0-0.8,0c-0.3,0-0.6,0-0.8,0s-0.6,0-0.8-0.1c-0.3,0.1-0.6,0.3-0.7,0.5
					c-0.2,0.2-0.3,0.5-0.3,0.7c0,0.2,0,0.4,0.1,0.5s0.2,0.3,0.4,0.4c0.2,0.1,0.4,0.2,0.7,0.3c0.3,0.1,0.6,0.1,1,0.1
					c0.4,0,0.7,0,1-0.1c0.3-0.1,0.6-0.2,0.8-0.3c0.2-0.1,0.4-0.3,0.5-0.5C121,44.8,121.1,44.6,121.1,44.4z M118.5,40
					c0.3,0,0.5,0,0.8-0.1c0.2-0.1,0.4-0.2,0.6-0.3s0.3-0.3,0.3-0.5c0.1-0.2,0.1-0.4,0.1-0.7c0-0.5-0.2-0.9-0.5-1.2
					c-0.3-0.3-0.7-0.4-1.3-0.4c-0.6,0-1,0.1-1.3,0.4c-0.3,0.3-0.5,0.7-0.5,1.2c0,0.2,0,0.5,0.1,0.7c0.1,0.2,0.2,0.4,0.3,0.5
					s0.3,0.3,0.6,0.3S118.3,40,118.5,40z"/>
				<path class="st2" d="M124,44v-8.1h0.8c0.2,0,0.3,0,0.3,0.1c0.1,0.1,0.1,0.2,0.1,0.3l0.1,1.3c0.3-0.6,0.6-1,1-1.3
					c0.4-0.3,0.9-0.5,1.4-0.5c0.2,0,0.4,0,0.6,0.1c0.2,0.1,0.3,0.1,0.5,0.2l-0.2,1.1c0,0.1-0.1,0.2-0.2,0.2c-0.1,0-0.2,0-0.3-0.1
					c-0.2,0-0.4-0.1-0.6-0.1c-0.5,0-0.9,0.1-1.2,0.4c-0.3,0.3-0.6,0.7-0.8,1.3V44H124z"/>
				<path class="st2" d="M133.7,35.8c0.6,0,1.1,0.1,1.6,0.3c0.5,0.2,0.9,0.5,1.2,0.8c0.3,0.4,0.6,0.8,0.8,1.3s0.3,1.1,0.3,1.7
					c0,0.6-0.1,1.2-0.3,1.7s-0.4,0.9-0.8,1.3c-0.3,0.4-0.7,0.6-1.2,0.8c-0.5,0.2-1,0.3-1.6,0.3c-0.6,0-1.1-0.1-1.6-0.3
					c-0.5-0.2-0.9-0.5-1.2-0.8c-0.3-0.4-0.6-0.8-0.8-1.3c-0.2-0.5-0.3-1.1-0.3-1.7c0-0.6,0.1-1.2,0.3-1.7c0.2-0.5,0.4-1,0.8-1.3
					c0.3-0.4,0.7-0.6,1.2-0.8C132.6,35.9,133.1,35.8,133.7,35.8z M133.7,43c0.8,0,1.4-0.3,1.8-0.8c0.4-0.5,0.6-1.3,0.6-2.2
					c0-1-0.2-1.7-0.6-2.3c-0.4-0.5-1-0.8-1.8-0.8c-0.4,0-0.8,0.1-1.1,0.2c-0.3,0.1-0.5,0.3-0.7,0.6c-0.2,0.3-0.3,0.6-0.4,1
					c-0.1,0.4-0.1,0.8-0.1,1.3c0,0.5,0,0.9,0.1,1.3s0.2,0.7,0.4,1s0.4,0.5,0.7,0.6C133,42.9,133.3,43,133.7,43z"/>
				<path class="st2" d="M140.6,35.9v5.2c0,0.6,0.1,1.1,0.4,1.4c0.3,0.3,0.7,0.5,1.3,0.5c0.4,0,0.8-0.1,1.2-0.3
					c0.4-0.2,0.7-0.5,1-0.8v-6h1.4V44H145c-0.2,0-0.3-0.1-0.4-0.3l-0.1-0.9c-0.4,0.4-0.7,0.7-1.2,0.9c-0.4,0.2-0.9,0.4-1.5,0.4
					c-0.4,0-0.8-0.1-1.2-0.2c-0.3-0.1-0.6-0.4-0.9-0.6c-0.2-0.3-0.4-0.6-0.5-1s-0.2-0.8-0.2-1.3v-5.2H140.6z"/>
				<path class="st2" d="M148.2,46.7V35.9h0.8c0.2,0,0.3,0.1,0.4,0.3l0.1,1c0.3-0.4,0.7-0.8,1.2-1s1-0.4,1.5-0.4
					c0.5,0,0.9,0.1,1.3,0.3c0.4,0.2,0.7,0.4,1,0.8c0.3,0.3,0.5,0.8,0.6,1.3c0.1,0.5,0.2,1.1,0.2,1.8c0,0.6-0.1,1.2-0.2,1.7
					c-0.2,0.5-0.4,1-0.7,1.3c-0.3,0.4-0.7,0.7-1.1,0.9c-0.4,0.2-0.9,0.3-1.5,0.3c-0.5,0-0.9-0.1-1.3-0.2c-0.4-0.2-0.7-0.4-0.9-0.7
					v3.6H148.2z M151.8,36.9c-0.5,0-0.9,0.1-1.2,0.3c-0.3,0.2-0.7,0.5-1,0.9V42c0.3,0.4,0.5,0.6,0.9,0.7s0.7,0.2,1,0.2
					c0.8,0,1.3-0.3,1.7-0.8c0.4-0.5,0.6-1.3,0.6-2.3c0-0.5,0-1-0.1-1.4c-0.1-0.4-0.2-0.7-0.4-0.9c-0.2-0.2-0.4-0.4-0.6-0.5
					C152.4,37,152.2,36.9,151.8,36.9z"/>
				<path class="st2" d="M156.9,37.1c0-0.1,0-0.3,0.1-0.4c0.1-0.1,0.1-0.2,0.2-0.3s0.2-0.2,0.3-0.2c0.1-0.1,0.3-0.1,0.4-0.1
					s0.3,0,0.4,0.1c0.1,0.1,0.2,0.1,0.3,0.2s0.2,0.2,0.2,0.3c0.1,0.1,0.1,0.3,0.1,0.4c0,0.1,0,0.3-0.1,0.4c-0.1,0.1-0.1,0.2-0.2,0.3
					s-0.2,0.2-0.3,0.2c-0.1,0.1-0.3,0.1-0.4,0.1s-0.3,0-0.4-0.1s-0.2-0.1-0.3-0.2s-0.2-0.2-0.2-0.3
					C156.9,37.4,156.9,37.3,156.9,37.1z M156.9,43.1c0-0.1,0-0.3,0.1-0.4c0.1-0.1,0.1-0.2,0.2-0.3s0.2-0.2,0.3-0.2
					c0.1-0.1,0.3-0.1,0.4-0.1s0.3,0,0.4,0.1c0.1,0.1,0.2,0.1,0.3,0.2s0.2,0.2,0.2,0.3c0.1,0.1,0.1,0.3,0.1,0.4c0,0.1,0,0.3-0.1,0.4
					c-0.1,0.1-0.1,0.2-0.2,0.3s-0.2,0.2-0.3,0.2c-0.1,0.1-0.3,0.1-0.4,0.1s-0.3,0-0.4-0.1s-0.2-0.1-0.3-0.2s-0.2-0.2-0.2-0.3
					C156.9,43.4,156.9,43.3,156.9,43.1z"/>
				<path class="st2" d="M169.9,44c-0.2,0-0.3-0.1-0.4-0.3l-0.1-1c-0.3,0.4-0.7,0.8-1.2,1c-0.4,0.3-1,0.4-1.5,0.4
					c-0.5,0-0.9-0.1-1.3-0.3c-0.4-0.2-0.7-0.4-1-0.8c-0.3-0.3-0.5-0.8-0.6-1.3c-0.1-0.5-0.2-1.1-0.2-1.8c0-0.6,0.1-1.2,0.2-1.7
					s0.4-1,0.7-1.3c0.3-0.4,0.7-0.7,1.1-0.9s0.9-0.3,1.5-0.3c0.5,0,0.9,0.1,1.3,0.3s0.7,0.4,0.9,0.7v-4.5h1.4V44H169.9z M167.1,43
					c0.5,0,0.9-0.1,1.2-0.3c0.3-0.2,0.7-0.5,1-0.9v-3.9c-0.3-0.4-0.5-0.6-0.9-0.7s-0.7-0.2-1-0.2c-0.8,0-1.3,0.3-1.7,0.8
					c-0.4,0.5-0.6,1.3-0.6,2.3c0,0.5,0,1,0.1,1.4c0.1,0.4,0.2,0.7,0.4,0.9c0.2,0.2,0.4,0.4,0.6,0.5S166.8,43,167.1,43z"/>
				<path class="st2" d="M176.3,35.8c0.5,0,0.9,0.1,1.3,0.2c0.4,0.2,0.8,0.4,1.1,0.7c0.3,0.3,0.5,0.7,0.7,1.1c0.2,0.5,0.3,1,0.3,1.5
					c0,0.2,0,0.4-0.1,0.4c0,0.1-0.1,0.1-0.3,0.1H174c0,0.5,0.1,1,0.2,1.3s0.3,0.7,0.5,0.9c0.2,0.3,0.5,0.4,0.8,0.6
					c0.3,0.1,0.7,0.2,1,0.2c0.4,0,0.7,0,0.9-0.1s0.5-0.2,0.7-0.3c0.2-0.1,0.3-0.2,0.5-0.3c0.1-0.1,0.2-0.1,0.3-0.1
					c0.1,0,0.2,0,0.3,0.1l0.4,0.5c-0.2,0.2-0.4,0.4-0.6,0.6c-0.2,0.2-0.5,0.3-0.8,0.4c-0.3,0.1-0.6,0.2-0.9,0.2
					c-0.3,0.1-0.6,0.1-0.9,0.1c-0.6,0-1.1-0.1-1.5-0.3c-0.5-0.2-0.9-0.5-1.2-0.8c-0.3-0.4-0.6-0.8-0.8-1.4c-0.2-0.5-0.3-1.2-0.3-1.9
					c0-0.6,0.1-1.1,0.3-1.6c0.2-0.5,0.4-0.9,0.7-1.3c0.3-0.4,0.7-0.6,1.2-0.8S175.7,35.8,176.3,35.8z M176.4,36.8
					c-0.7,0-1.2,0.2-1.6,0.6c-0.4,0.4-0.6,0.9-0.7,1.7h4.4c0-0.3,0-0.6-0.1-0.9c-0.1-0.3-0.2-0.5-0.4-0.7c-0.2-0.2-0.4-0.4-0.6-0.5
					S176.7,36.8,176.4,36.8z"/>
				<path class="st2" d="M181.5,46.7V35.9h0.8c0.2,0,0.3,0.1,0.4,0.3l0.1,1c0.3-0.4,0.7-0.8,1.2-1s1-0.4,1.5-0.4
					c0.5,0,0.9,0.1,1.3,0.3c0.4,0.2,0.7,0.4,1,0.8c0.3,0.3,0.5,0.8,0.6,1.3c0.1,0.5,0.2,1.1,0.2,1.8c0,0.6-0.1,1.2-0.2,1.7
					c-0.2,0.5-0.4,1-0.7,1.3c-0.3,0.4-0.7,0.7-1.1,0.9c-0.4,0.2-0.9,0.3-1.5,0.3c-0.5,0-0.9-0.1-1.3-0.2c-0.4-0.2-0.7-0.4-0.9-0.7
					v3.6H181.5z M185.1,36.9c-0.5,0-0.9,0.1-1.2,0.3c-0.3,0.2-0.7,0.5-1,0.9V42c0.3,0.4,0.5,0.6,0.9,0.7s0.7,0.2,1,0.2
					c0.8,0,1.3-0.3,1.7-0.8c0.4-0.5,0.6-1.3,0.6-2.3c0-0.5,0-1-0.1-1.4c-0.1-0.4-0.2-0.7-0.4-0.9c-0.2-0.2-0.4-0.4-0.6-0.5
					C185.7,37,185.4,36.9,185.1,36.9z"/>
				<path class="st2" d="M191.9,32.2V44h-1.4V32.2H191.9z"/>
				<path class="st2" d="M197.7,35.8c0.6,0,1.1,0.1,1.6,0.3c0.5,0.2,0.9,0.5,1.2,0.8c0.3,0.4,0.6,0.8,0.8,1.3s0.3,1.1,0.3,1.7
					c0,0.6-0.1,1.2-0.3,1.7s-0.4,0.9-0.8,1.3c-0.3,0.4-0.7,0.6-1.2,0.8c-0.5,0.2-1,0.3-1.6,0.3s-1.1-0.1-1.6-0.3
					c-0.5-0.2-0.9-0.5-1.2-0.8c-0.3-0.4-0.6-0.8-0.8-1.3c-0.2-0.5-0.3-1.1-0.3-1.7c0-0.6,0.1-1.2,0.3-1.7c0.2-0.5,0.4-1,0.8-1.3
					c0.3-0.4,0.7-0.6,1.2-0.8C196.6,35.9,197.1,35.8,197.7,35.8z M197.7,43c0.8,0,1.4-0.3,1.8-0.8c0.4-0.5,0.6-1.3,0.6-2.2
					c0-1-0.2-1.7-0.6-2.3c-0.4-0.5-1-0.8-1.8-0.8c-0.4,0-0.8,0.1-1.1,0.2s-0.5,0.3-0.7,0.6c-0.2,0.3-0.3,0.6-0.4,1
					c-0.1,0.4-0.1,0.8-0.1,1.3c0,0.5,0,0.9,0.1,1.3c0.1,0.4,0.2,0.7,0.4,1c0.2,0.3,0.4,0.5,0.7,0.6S197.3,43,197.7,43z"/>
				<path class="st2" d="M205.5,46.4c0,0.1-0.1,0.2-0.2,0.3c-0.1,0.1-0.2,0.1-0.3,0.1h-1.1l1.5-3.2l-3.3-7.6h1.2
					c0.1,0,0.2,0,0.3,0.1c0.1,0.1,0.1,0.1,0.2,0.2l2.2,5.1c0,0.1,0.1,0.2,0.1,0.4c0,0.1,0.1,0.2,0.1,0.4c0-0.1,0.1-0.2,0.1-0.4
					c0-0.1,0.1-0.2,0.1-0.4l2.1-5.1c0-0.1,0.1-0.2,0.2-0.2c0.1-0.1,0.2-0.1,0.3-0.1h1.1L205.5,46.4z"/>
				<path class="st2" d="M211.3,44v-8.1h0.8c0.2,0,0.3,0.1,0.4,0.3l0.1,0.8c0.3-0.4,0.6-0.7,1-0.9s0.8-0.4,1.3-0.4
					c0.5,0,1,0.2,1.3,0.5c0.3,0.3,0.6,0.7,0.7,1.2c0.1-0.3,0.3-0.5,0.4-0.8c0.2-0.2,0.4-0.4,0.6-0.5c0.2-0.1,0.5-0.2,0.7-0.3
					c0.3-0.1,0.5-0.1,0.8-0.1c0.4,0,0.8,0.1,1.1,0.2c0.3,0.1,0.6,0.3,0.8,0.6c0.2,0.3,0.4,0.6,0.5,1c0.1,0.4,0.2,0.8,0.2,1.3V44
					h-1.4v-5.2c0-0.6-0.1-1.1-0.4-1.4c-0.3-0.3-0.7-0.5-1.2-0.5c-0.2,0-0.5,0-0.7,0.1c-0.2,0.1-0.4,0.2-0.6,0.4
					c-0.2,0.2-0.3,0.4-0.4,0.6c-0.1,0.2-0.1,0.5-0.1,0.8V44h-1.4v-5.2c0-0.7-0.1-1.1-0.4-1.5c-0.3-0.3-0.6-0.5-1.1-0.5
					c-0.4,0-0.7,0.1-1,0.3c-0.3,0.2-0.6,0.4-0.8,0.8v6H211.3z"/>
				<path class="st2" d="M227.7,35.8c0.5,0,0.9,0.1,1.3,0.2c0.4,0.2,0.8,0.4,1.1,0.7s0.5,0.7,0.7,1.1c0.2,0.5,0.3,1,0.3,1.5
					c0,0.2,0,0.4-0.1,0.4c0,0.1-0.1,0.1-0.3,0.1h-5.4c0,0.5,0.1,1,0.2,1.3s0.3,0.7,0.5,0.9c0.2,0.3,0.5,0.4,0.8,0.6
					c0.3,0.1,0.7,0.2,1,0.2c0.4,0,0.7,0,0.9-0.1s0.5-0.2,0.7-0.3c0.2-0.1,0.3-0.2,0.5-0.3s0.2-0.1,0.3-0.1c0.1,0,0.2,0,0.3,0.1
					l0.4,0.5c-0.2,0.2-0.4,0.4-0.6,0.6s-0.5,0.3-0.8,0.4c-0.3,0.1-0.6,0.2-0.9,0.2c-0.3,0.1-0.6,0.1-0.9,0.1c-0.6,0-1.1-0.1-1.5-0.3
					s-0.9-0.5-1.2-0.8c-0.3-0.4-0.6-0.8-0.8-1.4c-0.2-0.5-0.3-1.2-0.3-1.9c0-0.6,0.1-1.1,0.3-1.6c0.2-0.5,0.4-0.9,0.7-1.3
					c0.3-0.4,0.7-0.6,1.2-0.8S227.1,35.8,227.7,35.8z M227.7,36.8c-0.7,0-1.2,0.2-1.6,0.6s-0.6,0.9-0.7,1.7h4.4c0-0.3,0-0.6-0.1-0.9
					c-0.1-0.3-0.2-0.5-0.4-0.7c-0.2-0.2-0.4-0.4-0.6-0.5C228.3,36.9,228,36.8,227.7,36.8z"/>
				<path class="st2" d="M232.8,44v-8.1h0.8c0.2,0,0.3,0.1,0.4,0.3l0.1,0.9c0.4-0.4,0.7-0.7,1.2-0.9c0.4-0.2,0.9-0.4,1.5-0.4
					c0.4,0,0.8,0.1,1.2,0.2s0.6,0.4,0.8,0.6c0.2,0.3,0.4,0.6,0.5,1s0.2,0.8,0.2,1.3V44h-1.4v-5.2c0-0.6-0.1-1.1-0.4-1.4
					c-0.3-0.3-0.7-0.5-1.3-0.5c-0.4,0-0.8,0.1-1.2,0.3c-0.4,0.2-0.7,0.5-1,0.8v6H232.8z"/>
				<path class="st2" d="M244.2,44.1c-0.6,0-1.1-0.2-1.5-0.5s-0.5-0.9-0.5-1.5v-5h-1c-0.1,0-0.2,0-0.2-0.1s-0.1-0.1-0.1-0.2v-0.6
					l1.3-0.2l0.3-2.5c0-0.1,0-0.1,0.1-0.2s0.1-0.1,0.2-0.1h0.7v2.8h2.3v1h-2.3V42c0,0.3,0.1,0.6,0.2,0.8c0.2,0.2,0.4,0.2,0.6,0.2
					c0.2,0,0.3,0,0.4-0.1s0.2-0.1,0.3-0.1c0.1,0,0.1-0.1,0.2-0.1c0.1,0,0.1-0.1,0.1-0.1c0.1,0,0.1,0,0.2,0.1l0.4,0.7
					c-0.2,0.2-0.5,0.4-0.9,0.5C244.9,44.1,244.6,44.1,244.2,44.1z"/>
				<path class="st2" d="M252.3,37.2c-0.1,0.1-0.2,0.2-0.3,0.2c-0.1,0-0.2,0-0.3-0.1c-0.1-0.1-0.2-0.1-0.4-0.2s-0.3-0.1-0.5-0.2
					c-0.2-0.1-0.4-0.1-0.7-0.1c-0.2,0-0.5,0-0.6,0.1c-0.2,0.1-0.4,0.1-0.5,0.3c-0.1,0.1-0.2,0.2-0.3,0.4c-0.1,0.1-0.1,0.3-0.1,0.5
					c0,0.2,0.1,0.4,0.2,0.5s0.3,0.3,0.5,0.4c0.2,0.1,0.4,0.2,0.7,0.3c0.3,0.1,0.5,0.2,0.8,0.2s0.5,0.2,0.8,0.3
					c0.2,0.1,0.5,0.2,0.7,0.4s0.4,0.4,0.5,0.6c0.1,0.2,0.2,0.5,0.2,0.8c0,0.4-0.1,0.7-0.2,1c-0.1,0.3-0.3,0.6-0.6,0.8
					c-0.3,0.2-0.6,0.4-1,0.5c-0.4,0.1-0.8,0.2-1.3,0.2c-0.6,0-1.1-0.1-1.5-0.3c-0.5-0.2-0.8-0.4-1.2-0.7l0.3-0.5
					c0-0.1,0.1-0.1,0.2-0.2c0.1,0,0.1-0.1,0.2-0.1s0.2,0,0.3,0.1c0.1,0.1,0.2,0.2,0.4,0.2c0.2,0.1,0.3,0.2,0.6,0.2
					c0.2,0.1,0.5,0.1,0.8,0.1c0.3,0,0.5,0,0.7-0.1s0.4-0.2,0.5-0.3s0.2-0.3,0.3-0.4c0.1-0.2,0.1-0.3,0.1-0.5c0-0.2-0.1-0.4-0.2-0.6
					s-0.3-0.3-0.5-0.4c-0.2-0.1-0.4-0.2-0.7-0.3c-0.3-0.1-0.5-0.2-0.8-0.2c-0.3-0.1-0.5-0.2-0.8-0.3s-0.5-0.2-0.7-0.4
					s-0.4-0.4-0.5-0.6c-0.1-0.2-0.2-0.5-0.2-0.9c0-0.3,0.1-0.6,0.2-0.9c0.1-0.3,0.3-0.5,0.6-0.8c0.2-0.2,0.5-0.4,0.9-0.5
					s0.8-0.2,1.2-0.2c0.5,0,1,0.1,1.4,0.3c0.4,0.2,0.8,0.4,1.1,0.7L252.3,37.2z"/>
			</g>
			<g>
			</g>
			<g class="st1">
				<path class="st2" d="M108.6,51.2v6.9h0.4c0.1,0,0.2,0,0.3,0s0.1-0.1,0.2-0.2l2.6-2.7c0.1-0.1,0.2-0.2,0.2-0.2
					c0.1-0.1,0.2-0.1,0.3-0.1h1.3l-3,3.2c-0.1,0.1-0.1,0.2-0.2,0.2c-0.1,0.1-0.2,0.1-0.2,0.2c0.1,0.1,0.2,0.1,0.3,0.2
					c0.1,0.1,0.2,0.2,0.2,0.3l3.2,4h-1.3c-0.1,0-0.2,0-0.3-0.1c-0.1,0-0.2-0.1-0.2-0.2l-2.7-3.3c-0.1-0.1-0.2-0.2-0.2-0.2
					c-0.1,0-0.2-0.1-0.4-0.1h-0.4V63h-1.4V51.2H108.6z"/>
				<path class="st2" d="M117.5,52.4c0,0.1,0,0.3-0.1,0.4c-0.1,0.1-0.1,0.2-0.2,0.3c-0.1,0.1-0.2,0.2-0.3,0.2
					c-0.1,0.1-0.3,0.1-0.4,0.1s-0.3,0-0.4-0.1c-0.1-0.1-0.2-0.1-0.3-0.2c-0.1-0.1-0.2-0.2-0.2-0.3c-0.1-0.1-0.1-0.2-0.1-0.4
					c0-0.1,0-0.3,0.1-0.4c0.1-0.1,0.1-0.2,0.2-0.3c0.1-0.1,0.2-0.2,0.3-0.2c0.1-0.1,0.2-0.1,0.4-0.1s0.3,0,0.4,0.1
					c0.1,0.1,0.2,0.1,0.3,0.2c0.1,0.1,0.2,0.2,0.2,0.3C117.4,52.1,117.5,52.2,117.5,52.4z M117.1,54.9V63h-1.4v-8.1H117.1z"/>
				<path class="st2" d="M119.6,63v-8.1h0.8c0.2,0,0.3,0.1,0.4,0.3l0.1,0.9c0.4-0.4,0.7-0.7,1.2-0.9s0.9-0.4,1.5-0.4
					c0.4,0,0.8,0.1,1.2,0.2c0.3,0.1,0.6,0.4,0.8,0.6c0.2,0.3,0.4,0.6,0.5,1s0.2,0.8,0.2,1.3V63H125v-5.2c0-0.6-0.1-1.1-0.4-1.4
					c-0.3-0.3-0.7-0.5-1.3-0.5c-0.4,0-0.8,0.1-1.2,0.3c-0.4,0.2-0.7,0.5-1,0.8v6H119.6z"/>
				<path class="st2" d="M134.2,63c-0.2,0-0.3-0.1-0.4-0.3l-0.1-1c-0.3,0.4-0.7,0.8-1.2,1c-0.4,0.3-1,0.4-1.5,0.4
					c-0.5,0-0.9-0.1-1.3-0.3c-0.4-0.2-0.7-0.4-1-0.8c-0.3-0.3-0.5-0.8-0.6-1.3c-0.1-0.5-0.2-1.1-0.2-1.8c0-0.6,0.1-1.2,0.2-1.7
					s0.4-1,0.7-1.3c0.3-0.4,0.7-0.7,1.1-0.9s0.9-0.3,1.5-0.3c0.5,0,0.9,0.1,1.3,0.3s0.7,0.4,0.9,0.7v-4.5h1.4V63H134.2z M131.5,62
					c0.5,0,0.9-0.1,1.2-0.3c0.3-0.2,0.7-0.5,1-0.9v-3.9c-0.3-0.4-0.5-0.6-0.9-0.7s-0.7-0.2-1-0.2c-0.8,0-1.3,0.3-1.7,0.8
					c-0.4,0.5-0.6,1.3-0.6,2.3c0,0.5,0,1,0.1,1.4c0.1,0.4,0.2,0.7,0.4,0.9c0.2,0.2,0.4,0.4,0.6,0.5S131.2,62,131.5,62z"/>
				<path class="st2" d="M137.3,56.1c0-0.1,0-0.3,0.1-0.4c0.1-0.1,0.1-0.2,0.2-0.3s0.2-0.2,0.3-0.2c0.1-0.1,0.3-0.1,0.4-0.1
					s0.3,0,0.4,0.1c0.1,0.1,0.2,0.1,0.3,0.2s0.2,0.2,0.2,0.3c0.1,0.1,0.1,0.3,0.1,0.4c0,0.1,0,0.3-0.1,0.4c-0.1,0.1-0.1,0.2-0.2,0.3
					s-0.2,0.2-0.3,0.2c-0.1,0.1-0.3,0.1-0.4,0.1s-0.3,0-0.4-0.1s-0.2-0.1-0.3-0.2s-0.2-0.2-0.2-0.3
					C137.4,56.4,137.3,56.3,137.3,56.1z M137.3,62.1c0-0.1,0-0.3,0.1-0.4c0.1-0.1,0.1-0.2,0.2-0.3s0.2-0.2,0.3-0.2
					c0.1-0.1,0.3-0.1,0.4-0.1s0.3,0,0.4,0.1c0.1,0.1,0.2,0.1,0.3,0.2s0.2,0.2,0.2,0.3c0.1,0.1,0.1,0.3,0.1,0.4c0,0.1,0,0.3-0.1,0.4
					c-0.1,0.1-0.1,0.2-0.2,0.3s-0.2,0.2-0.3,0.2c-0.1,0.1-0.3,0.1-0.4,0.1s-0.3,0-0.4-0.1s-0.2-0.1-0.3-0.2s-0.2-0.2-0.2-0.3
					C137.4,62.4,137.3,62.3,137.3,62.1z"/>
				<path class="st2" d="M154.8,57.3c0,0.9-0.1,1.6-0.4,2.3s-0.7,1.3-1.2,1.8c-0.5,0.5-1.1,0.9-1.8,1.2S150,63,149.1,63h-4.3V51.5
					h4.3c0.8,0,1.6,0.1,2.3,0.4s1.3,0.7,1.8,1.2s0.9,1.1,1.2,1.8S154.8,56.4,154.8,57.3z M153.2,57.3c0-0.7-0.1-1.3-0.3-1.9
					c-0.2-0.6-0.5-1-0.8-1.4c-0.4-0.4-0.8-0.7-1.3-0.9c-0.5-0.2-1.1-0.3-1.7-0.3h-2.7v9h2.7c0.6,0,1.2-0.1,1.7-0.3
					c0.5-0.2,0.9-0.5,1.3-0.9c0.4-0.4,0.6-0.8,0.8-1.4C153.1,58.6,153.2,58,153.2,57.3z"/>
				<path class="st2" d="M159.9,54.8c0.5,0,0.9,0.1,1.3,0.2c0.4,0.2,0.8,0.4,1.1,0.7c0.3,0.3,0.5,0.7,0.7,1.1c0.2,0.5,0.3,1,0.3,1.5
					c0,0.2,0,0.4-0.1,0.4c0,0.1-0.1,0.1-0.3,0.1h-5.4c0,0.5,0.1,1,0.2,1.3s0.3,0.7,0.5,0.9c0.2,0.3,0.5,0.4,0.8,0.6
					c0.3,0.1,0.7,0.2,1,0.2c0.4,0,0.7,0,0.9-0.1s0.5-0.2,0.7-0.3c0.2-0.1,0.3-0.2,0.5-0.3c0.1-0.1,0.2-0.1,0.3-0.1
					c0.1,0,0.2,0,0.3,0.1l0.4,0.5c-0.2,0.2-0.4,0.4-0.6,0.6c-0.2,0.2-0.5,0.3-0.8,0.4c-0.3,0.1-0.6,0.2-0.9,0.2
					c-0.3,0.1-0.6,0.1-0.9,0.1c-0.6,0-1.1-0.1-1.5-0.3c-0.5-0.2-0.9-0.5-1.2-0.8c-0.3-0.4-0.6-0.8-0.8-1.4c-0.2-0.5-0.3-1.2-0.3-1.9
					c0-0.6,0.1-1.1,0.3-1.6c0.2-0.5,0.4-0.9,0.7-1.3c0.3-0.4,0.7-0.6,1.2-0.8S159.3,54.8,159.9,54.8z M159.9,55.8
					c-0.7,0-1.2,0.2-1.6,0.6c-0.4,0.4-0.6,0.9-0.7,1.7h4.4c0-0.3,0-0.6-0.1-0.9c-0.1-0.3-0.2-0.5-0.4-0.7c-0.2-0.2-0.4-0.4-0.6-0.5
					S160.2,55.8,159.9,55.8z"/>
				<path class="st2" d="M165,65.7V54.9h0.8c0.2,0,0.3,0.1,0.4,0.3l0.1,1c0.3-0.4,0.7-0.8,1.2-1s1-0.4,1.5-0.4
					c0.5,0,0.9,0.1,1.3,0.3c0.4,0.2,0.7,0.4,1,0.8c0.3,0.3,0.5,0.8,0.6,1.3c0.1,0.5,0.2,1.1,0.2,1.8c0,0.6-0.1,1.2-0.2,1.7
					c-0.2,0.5-0.4,1-0.7,1.3c-0.3,0.4-0.7,0.7-1.1,0.9c-0.4,0.2-0.9,0.3-1.5,0.3c-0.5,0-0.9-0.1-1.3-0.2c-0.4-0.2-0.7-0.4-0.9-0.7
					v3.6H165z M168.6,55.9c-0.5,0-0.9,0.1-1.2,0.3c-0.3,0.2-0.7,0.5-1,0.9V61c0.3,0.4,0.5,0.6,0.9,0.7s0.7,0.2,1,0.2
					c0.8,0,1.3-0.3,1.7-0.8c0.4-0.5,0.6-1.3,0.6-2.3c0-0.5,0-1-0.1-1.4c-0.1-0.4-0.2-0.7-0.4-0.9c-0.2-0.2-0.4-0.4-0.6-0.5
					C169.3,56,169,55.9,168.6,55.9z"/>
				<path class="st2" d="M175.5,51.2V63H174V51.2H175.5z"/>
				<path class="st2" d="M181.2,54.8c0.6,0,1.1,0.1,1.6,0.3c0.5,0.2,0.9,0.5,1.2,0.8c0.3,0.4,0.6,0.8,0.8,1.3s0.3,1.1,0.3,1.7
					c0,0.6-0.1,1.2-0.3,1.7s-0.4,0.9-0.8,1.3c-0.3,0.4-0.7,0.6-1.2,0.8c-0.5,0.2-1,0.3-1.6,0.3c-0.6,0-1.1-0.1-1.6-0.3
					c-0.5-0.2-0.9-0.5-1.2-0.8c-0.3-0.4-0.6-0.8-0.8-1.3c-0.2-0.5-0.3-1.1-0.3-1.7c0-0.6,0.1-1.2,0.3-1.7c0.2-0.5,0.4-1,0.8-1.3
					c0.3-0.4,0.7-0.6,1.2-0.8C180.1,54.9,180.7,54.8,181.2,54.8z M181.2,62c0.8,0,1.4-0.3,1.8-0.8c0.4-0.5,0.6-1.3,0.6-2.2
					c0-1-0.2-1.7-0.6-2.3c-0.4-0.5-1-0.8-1.8-0.8c-0.4,0-0.8,0.1-1.1,0.2c-0.3,0.1-0.5,0.3-0.7,0.6c-0.2,0.3-0.3,0.6-0.4,1
					c-0.1,0.4-0.1,0.8-0.1,1.3c0,0.5,0,0.9,0.1,1.3s0.2,0.7,0.4,1s0.4,0.5,0.7,0.6C180.5,61.9,180.8,62,181.2,62z"/>
				<path class="st2" d="M189,65.4c0,0.1-0.1,0.2-0.2,0.3c-0.1,0.1-0.2,0.1-0.3,0.1h-1.1l1.5-3.2l-3.3-7.6h1.2c0.1,0,0.2,0,0.3,0.1
					s0.1,0.1,0.2,0.2l2.2,5.1c0,0.1,0.1,0.2,0.1,0.4c0,0.1,0.1,0.2,0.1,0.4c0-0.1,0.1-0.2,0.1-0.4c0-0.1,0.1-0.2,0.1-0.4l2.1-5.1
					c0-0.1,0.1-0.2,0.2-0.2c0.1-0.1,0.2-0.1,0.3-0.1h1.1L189,65.4z"/>
				<path class="st2" d="M194.8,63v-8.1h0.8c0.2,0,0.3,0.1,0.4,0.3l0.1,0.8c0.3-0.4,0.6-0.7,1-0.9s0.8-0.4,1.3-0.4
					c0.5,0,1,0.2,1.3,0.5c0.3,0.3,0.6,0.7,0.7,1.2c0.1-0.3,0.3-0.5,0.4-0.8c0.2-0.2,0.4-0.4,0.6-0.5c0.2-0.1,0.5-0.2,0.7-0.3
					c0.3-0.1,0.5-0.1,0.8-0.1c0.4,0,0.8,0.1,1.1,0.2c0.3,0.1,0.6,0.3,0.8,0.6c0.2,0.3,0.4,0.6,0.5,1c0.1,0.4,0.2,0.8,0.2,1.3V63
					h-1.4v-5.2c0-0.6-0.1-1.1-0.4-1.4c-0.3-0.3-0.7-0.5-1.2-0.5c-0.2,0-0.5,0-0.7,0.1c-0.2,0.1-0.4,0.2-0.6,0.4
					c-0.2,0.2-0.3,0.4-0.4,0.6c-0.1,0.2-0.1,0.5-0.1,0.8V63h-1.4v-5.2c0-0.7-0.1-1.1-0.4-1.5c-0.3-0.3-0.6-0.5-1.1-0.5
					c-0.4,0-0.7,0.1-1,0.3c-0.3,0.2-0.6,0.4-0.8,0.8v6H194.8z"/>
				<path class="st2" d="M211.2,54.8c0.5,0,0.9,0.1,1.3,0.2c0.4,0.2,0.8,0.4,1.1,0.7c0.3,0.3,0.5,0.7,0.7,1.1c0.2,0.5,0.3,1,0.3,1.5
					c0,0.2,0,0.4-0.1,0.4c0,0.1-0.1,0.1-0.3,0.1h-5.4c0,0.5,0.1,1,0.2,1.3c0.1,0.4,0.3,0.7,0.5,0.9c0.2,0.3,0.5,0.4,0.8,0.6
					c0.3,0.1,0.7,0.2,1,0.2c0.4,0,0.7,0,0.9-0.1c0.3-0.1,0.5-0.2,0.7-0.3c0.2-0.1,0.3-0.2,0.5-0.3s0.2-0.1,0.3-0.1
					c0.1,0,0.2,0,0.3,0.1l0.4,0.5c-0.2,0.2-0.4,0.4-0.6,0.6c-0.2,0.2-0.5,0.3-0.8,0.4c-0.3,0.1-0.6,0.2-0.9,0.2
					c-0.3,0.1-0.6,0.1-0.9,0.1c-0.6,0-1.1-0.1-1.5-0.3c-0.5-0.2-0.9-0.5-1.2-0.8c-0.3-0.4-0.6-0.8-0.8-1.4c-0.2-0.5-0.3-1.2-0.3-1.9
					c0-0.6,0.1-1.1,0.3-1.6c0.2-0.5,0.4-0.9,0.7-1.3c0.3-0.4,0.7-0.6,1.2-0.8C210.1,54.9,210.6,54.8,211.2,54.8z M211.2,55.8
					c-0.7,0-1.2,0.2-1.6,0.6c-0.4,0.4-0.6,0.9-0.7,1.7h4.4c0-0.3,0-0.6-0.1-0.9c-0.1-0.3-0.2-0.5-0.4-0.7c-0.2-0.2-0.4-0.4-0.6-0.5
					S211.5,55.8,211.2,55.8z"/>
				<path class="st2" d="M216.4,63v-8.1h0.8c0.2,0,0.3,0.1,0.4,0.3l0.1,0.9c0.4-0.4,0.7-0.7,1.2-0.9s0.9-0.4,1.5-0.4
					c0.4,0,0.8,0.1,1.2,0.2c0.3,0.1,0.6,0.4,0.8,0.6c0.2,0.3,0.4,0.6,0.5,1s0.2,0.8,0.2,1.3V63h-1.4v-5.2c0-0.6-0.1-1.1-0.4-1.4
					s-0.7-0.5-1.3-0.5c-0.4,0-0.8,0.1-1.2,0.3c-0.4,0.2-0.7,0.5-1,0.8v6H216.4z"/>
				<path class="st2" d="M227.7,63.1c-0.6,0-1.1-0.2-1.5-0.5c-0.3-0.4-0.5-0.9-0.5-1.5v-5h-1c-0.1,0-0.2,0-0.2-0.1s-0.1-0.1-0.1-0.2
					v-0.6l1.3-0.2l0.3-2.5c0-0.1,0-0.1,0.1-0.2s0.1-0.1,0.2-0.1h0.7v2.8h2.3v1h-2.3V61c0,0.3,0.1,0.6,0.2,0.8
					c0.2,0.2,0.4,0.2,0.6,0.2c0.1,0,0.3,0,0.4-0.1s0.2-0.1,0.3-0.1c0.1,0,0.1-0.1,0.2-0.1c0.1,0,0.1-0.1,0.1-0.1
					c0.1,0,0.1,0,0.2,0.1l0.4,0.7c-0.2,0.2-0.5,0.4-0.9,0.5C228.4,63.1,228.1,63.1,227.7,63.1z"/>
			</g>
			<g>
			</g>
			<g class="st1">
				<path class="st2" d="M106.8,76.6h4v1.2h-4V76.6z"/>
				<path class="st2" d="M118.5,73.8c0.4,0,0.7,0,1,0.1s0.6,0.2,0.8,0.3h2.2v0.5c0,0.2-0.1,0.3-0.3,0.3l-0.9,0.1
					c0.2,0.3,0.3,0.7,0.3,1.2c0,0.4-0.1,0.8-0.2,1.1c-0.2,0.3-0.4,0.6-0.6,0.8c-0.3,0.2-0.6,0.4-1,0.5c-0.4,0.1-0.8,0.2-1.2,0.2
					c-0.4,0-0.7,0-1.1-0.1c-0.2,0.1-0.3,0.2-0.4,0.4c-0.1,0.1-0.1,0.3-0.1,0.4c0,0.2,0.1,0.3,0.2,0.5c0.2,0.1,0.4,0.2,0.6,0.2
					c0.3,0,0.5,0.1,0.9,0.1s0.7,0,1,0c0.3,0,0.7,0,1,0.1c0.3,0.1,0.6,0.2,0.9,0.3c0.3,0.1,0.5,0.3,0.6,0.6c0.2,0.2,0.2,0.5,0.2,0.9
					c0,0.4-0.1,0.7-0.3,1c-0.2,0.3-0.4,0.6-0.7,0.9c-0.3,0.3-0.7,0.5-1.2,0.6c-0.5,0.2-1,0.2-1.6,0.2c-0.6,0-1.1-0.1-1.6-0.2
					c-0.4-0.1-0.8-0.3-1.1-0.5c-0.3-0.2-0.5-0.4-0.7-0.7c-0.1-0.3-0.2-0.5-0.2-0.8c0-0.4,0.1-0.7,0.4-1c0.3-0.3,0.6-0.5,1-0.7
					c-0.2-0.1-0.4-0.2-0.5-0.4c-0.1-0.2-0.2-0.4-0.2-0.7c0-0.1,0-0.2,0.1-0.4c0-0.1,0.1-0.2,0.2-0.4s0.2-0.2,0.3-0.4
					c0.1-0.1,0.3-0.2,0.4-0.3c-0.4-0.2-0.7-0.5-0.9-0.9c-0.2-0.4-0.3-0.8-0.3-1.3c0-0.4,0.1-0.8,0.2-1.1c0.2-0.3,0.4-0.6,0.6-0.8
					s0.6-0.4,1-0.5C117.7,73.8,118.1,73.8,118.5,73.8z M121.1,82.4c0-0.2-0.1-0.4-0.2-0.5c-0.1-0.1-0.3-0.2-0.5-0.3
					c-0.2-0.1-0.4-0.1-0.7-0.2c-0.3,0-0.5,0-0.8,0c-0.3,0-0.6,0-0.8,0s-0.6,0-0.8-0.1c-0.3,0.1-0.6,0.3-0.7,0.5
					c-0.2,0.2-0.3,0.5-0.3,0.7c0,0.2,0,0.4,0.1,0.5s0.2,0.3,0.4,0.4c0.2,0.1,0.4,0.2,0.7,0.3c0.3,0.1,0.6,0.1,1,0.1
					c0.4,0,0.7,0,1-0.1c0.3-0.1,0.6-0.2,0.8-0.3c0.2-0.1,0.4-0.3,0.5-0.5C121,82.8,121.1,82.6,121.1,82.4z M118.5,78
					c0.3,0,0.5,0,0.8-0.1c0.2-0.1,0.4-0.2,0.6-0.3s0.3-0.3,0.3-0.5c0.1-0.2,0.1-0.4,0.1-0.7c0-0.5-0.2-0.9-0.5-1.2
					c-0.3-0.3-0.7-0.4-1.3-0.4c-0.6,0-1,0.1-1.3,0.4c-0.3,0.3-0.5,0.7-0.5,1.2c0,0.2,0,0.5,0.1,0.7c0.1,0.2,0.2,0.4,0.3,0.5
					s0.3,0.3,0.6,0.3S118.3,78,118.5,78z"/>
				<path class="st2" d="M124,82v-8.1h0.8c0.2,0,0.3,0,0.3,0.1c0.1,0.1,0.1,0.2,0.1,0.3l0.1,1.3c0.3-0.6,0.6-1,1-1.3
					c0.4-0.3,0.9-0.5,1.4-0.5c0.2,0,0.4,0,0.6,0.1c0.2,0.1,0.3,0.1,0.5,0.2l-0.2,1.1c0,0.1-0.1,0.2-0.2,0.2c-0.1,0-0.2,0-0.3-0.1
					c-0.2,0-0.4-0.1-0.6-0.1c-0.5,0-0.9,0.1-1.2,0.4c-0.3,0.3-0.6,0.7-0.8,1.3V82H124z"/>
				<path class="st2" d="M133.7,73.8c0.6,0,1.1,0.1,1.6,0.3c0.5,0.2,0.9,0.5,1.2,0.8c0.3,0.4,0.6,0.8,0.8,1.3s0.3,1.1,0.3,1.7
					c0,0.6-0.1,1.2-0.3,1.7s-0.4,0.9-0.8,1.3c-0.3,0.4-0.7,0.6-1.2,0.8c-0.5,0.2-1,0.3-1.6,0.3c-0.6,0-1.1-0.1-1.6-0.3
					c-0.5-0.2-0.9-0.5-1.2-0.8c-0.3-0.4-0.6-0.8-0.8-1.3c-0.2-0.5-0.3-1.1-0.3-1.7c0-0.6,0.1-1.2,0.3-1.7c0.2-0.5,0.4-1,0.8-1.3
					c0.3-0.4,0.7-0.6,1.2-0.8C132.6,73.9,133.1,73.8,133.7,73.8z M133.7,81c0.8,0,1.4-0.3,1.8-0.8c0.4-0.5,0.6-1.3,0.6-2.2
					c0-1-0.2-1.7-0.6-2.3c-0.4-0.5-1-0.8-1.8-0.8c-0.4,0-0.8,0.1-1.1,0.2c-0.3,0.1-0.5,0.3-0.7,0.6c-0.2,0.3-0.3,0.6-0.4,1
					c-0.1,0.4-0.1,0.8-0.1,1.3c0,0.5,0,0.9,0.1,1.3s0.2,0.7,0.4,1s0.4,0.5,0.7,0.6C133,80.9,133.3,81,133.7,81z"/>
				<path class="st2" d="M140.6,73.9v5.2c0,0.6,0.1,1.1,0.4,1.4c0.3,0.3,0.7,0.5,1.3,0.5c0.4,0,0.8-0.1,1.2-0.3
					c0.4-0.2,0.7-0.5,1-0.8v-6h1.4V82H145c-0.2,0-0.3-0.1-0.4-0.3l-0.1-0.9c-0.4,0.4-0.7,0.7-1.2,0.9c-0.4,0.2-0.9,0.4-1.5,0.4
					c-0.4,0-0.8-0.1-1.2-0.2c-0.3-0.1-0.6-0.4-0.9-0.6c-0.2-0.3-0.4-0.6-0.5-1s-0.2-0.8-0.2-1.3v-5.2H140.6z"/>
				<path class="st2" d="M148.2,84.7V73.9h0.8c0.2,0,0.3,0.1,0.4,0.3l0.1,1c0.3-0.4,0.7-0.8,1.2-1s1-0.4,1.5-0.4
					c0.5,0,0.9,0.1,1.3,0.3c0.4,0.2,0.7,0.4,1,0.8c0.3,0.3,0.5,0.8,0.6,1.3c0.1,0.5,0.2,1.1,0.2,1.8c0,0.6-0.1,1.2-0.2,1.7
					c-0.2,0.5-0.4,1-0.7,1.3c-0.3,0.4-0.7,0.7-1.1,0.9c-0.4,0.2-0.9,0.3-1.5,0.3c-0.5,0-0.9-0.1-1.3-0.2c-0.4-0.2-0.7-0.4-0.9-0.7
					v3.6H148.2z M151.8,74.9c-0.5,0-0.9,0.1-1.2,0.3c-0.3,0.2-0.7,0.5-1,0.9V80c0.3,0.4,0.5,0.6,0.9,0.7s0.7,0.2,1,0.2
					c0.8,0,1.3-0.3,1.7-0.8c0.4-0.5,0.6-1.3,0.6-2.3c0-0.5,0-1-0.1-1.4c-0.1-0.4-0.2-0.7-0.4-0.9c-0.2-0.2-0.4-0.4-0.6-0.5
					C152.4,75,152.2,74.9,151.8,74.9z"/>
				<path class="st2" d="M156.9,75.1c0-0.1,0-0.3,0.1-0.4c0.1-0.1,0.1-0.2,0.2-0.3s0.2-0.2,0.3-0.2c0.1-0.1,0.3-0.1,0.4-0.1
					s0.3,0,0.4,0.1c0.1,0.1,0.2,0.1,0.3,0.2s0.2,0.2,0.2,0.3c0.1,0.1,0.1,0.3,0.1,0.4c0,0.1,0,0.3-0.1,0.4c-0.1,0.1-0.1,0.2-0.2,0.3
					s-0.2,0.2-0.3,0.2c-0.1,0.1-0.3,0.1-0.4,0.1s-0.3,0-0.4-0.1s-0.2-0.1-0.3-0.2s-0.2-0.2-0.2-0.3
					C156.9,75.4,156.9,75.3,156.9,75.1z M156.9,81.1c0-0.1,0-0.3,0.1-0.4c0.1-0.1,0.1-0.2,0.2-0.3s0.2-0.2,0.3-0.2
					c0.1-0.1,0.3-0.1,0.4-0.1s0.3,0,0.4,0.1c0.1,0.1,0.2,0.1,0.3,0.2s0.2,0.2,0.2,0.3c0.1,0.1,0.1,0.3,0.1,0.4c0,0.1,0,0.3-0.1,0.4
					c-0.1,0.1-0.1,0.2-0.2,0.3s-0.2,0.2-0.3,0.2c-0.1,0.1-0.3,0.1-0.4,0.1s-0.3,0-0.4-0.1s-0.2-0.1-0.3-0.2s-0.2-0.2-0.2-0.3
					C156.9,81.4,156.9,81.3,156.9,81.1z"/>
				<path class="st2" d="M168.8,75.2c-0.1,0.1-0.2,0.2-0.3,0.2c-0.1,0-0.2,0-0.3-0.1c-0.1-0.1-0.2-0.1-0.4-0.2
					c-0.1-0.1-0.3-0.1-0.5-0.2c-0.2-0.1-0.4-0.1-0.7-0.1c-0.2,0-0.5,0-0.6,0.1s-0.4,0.1-0.5,0.3c-0.1,0.1-0.2,0.2-0.3,0.4
					c-0.1,0.1-0.1,0.3-0.1,0.5c0,0.2,0.1,0.4,0.2,0.5c0.1,0.1,0.3,0.3,0.5,0.4c0.2,0.1,0.4,0.2,0.7,0.3c0.3,0.1,0.5,0.2,0.8,0.2
					s0.5,0.2,0.8,0.3c0.3,0.1,0.5,0.2,0.7,0.4s0.4,0.4,0.5,0.6c0.1,0.2,0.2,0.5,0.2,0.8c0,0.4-0.1,0.7-0.2,1s-0.3,0.6-0.6,0.8
					c-0.3,0.2-0.6,0.4-1,0.5c-0.4,0.1-0.8,0.2-1.3,0.2c-0.6,0-1.1-0.1-1.5-0.3c-0.5-0.2-0.8-0.4-1.2-0.7l0.3-0.5
					c0-0.1,0.1-0.1,0.2-0.2c0.1,0,0.1-0.1,0.2-0.1c0.1,0,0.2,0,0.3,0.1c0.1,0.1,0.2,0.2,0.4,0.2c0.2,0.1,0.3,0.2,0.6,0.2
					c0.2,0.1,0.5,0.1,0.8,0.1c0.3,0,0.5,0,0.7-0.1s0.4-0.2,0.5-0.3s0.2-0.3,0.3-0.4c0.1-0.2,0.1-0.3,0.1-0.5c0-0.2-0.1-0.4-0.2-0.6
					s-0.3-0.3-0.5-0.4c-0.2-0.1-0.4-0.2-0.7-0.3c-0.3-0.1-0.5-0.2-0.8-0.2c-0.3-0.1-0.5-0.2-0.8-0.3s-0.5-0.2-0.7-0.4
					c-0.2-0.2-0.4-0.4-0.5-0.6c-0.1-0.2-0.2-0.5-0.2-0.9c0-0.3,0.1-0.6,0.2-0.9c0.1-0.3,0.3-0.5,0.6-0.8c0.2-0.2,0.5-0.4,0.9-0.5
					c0.4-0.1,0.8-0.2,1.2-0.2c0.5,0,1,0.1,1.4,0.3c0.4,0.2,0.8,0.4,1.1,0.7L168.8,75.2z"/>
				<path class="st2" d="M174.3,73.8c0.5,0,0.9,0.1,1.3,0.2c0.4,0.2,0.8,0.4,1.1,0.7c0.3,0.3,0.5,0.7,0.7,1.1c0.2,0.5,0.3,1,0.3,1.5
					c0,0.2,0,0.4-0.1,0.4c0,0.1-0.1,0.1-0.3,0.1H172c0,0.5,0.1,1,0.2,1.3s0.3,0.7,0.5,0.9c0.2,0.3,0.5,0.4,0.8,0.6
					c0.3,0.1,0.7,0.2,1,0.2c0.4,0,0.7,0,0.9-0.1s0.5-0.2,0.7-0.3c0.2-0.1,0.3-0.2,0.5-0.3c0.1-0.1,0.2-0.1,0.3-0.1
					c0.1,0,0.2,0,0.3,0.1l0.4,0.5c-0.2,0.2-0.4,0.4-0.6,0.6c-0.2,0.2-0.5,0.3-0.8,0.4c-0.3,0.1-0.6,0.2-0.9,0.2
					c-0.3,0.1-0.6,0.1-0.9,0.1c-0.6,0-1.1-0.1-1.5-0.3c-0.5-0.2-0.9-0.5-1.2-0.8c-0.3-0.4-0.6-0.8-0.8-1.4c-0.2-0.5-0.3-1.2-0.3-1.9
					c0-0.6,0.1-1.1,0.3-1.6c0.2-0.5,0.4-0.9,0.7-1.3c0.3-0.4,0.7-0.6,1.2-0.8S173.7,73.8,174.3,73.8z M174.4,74.8
					c-0.7,0-1.2,0.2-1.6,0.6c-0.4,0.4-0.6,0.9-0.7,1.7h4.4c0-0.3,0-0.6-0.1-0.9c-0.1-0.3-0.2-0.5-0.4-0.7c-0.2-0.2-0.4-0.4-0.6-0.5
					S174.7,74.8,174.4,74.8z"/>
				<path class="st2" d="M179.5,82v-8.1h0.8c0.2,0,0.3,0,0.3,0.1c0.1,0.1,0.1,0.2,0.1,0.3l0.1,1.3c0.3-0.6,0.6-1,1-1.3
					c0.4-0.3,0.9-0.5,1.4-0.5c0.2,0,0.4,0,0.6,0.1c0.2,0.1,0.3,0.1,0.5,0.2l-0.2,1.1c0,0.1-0.1,0.2-0.2,0.2c-0.1,0-0.2,0-0.3-0.1
					c-0.2,0-0.4-0.1-0.6-0.1c-0.5,0-0.9,0.1-1.2,0.4c-0.3,0.3-0.6,0.7-0.8,1.3V82H179.5z"/>
				<path class="st2" d="M184.9,73.9h1.2c0.1,0,0.2,0,0.3,0.1s0.1,0.1,0.2,0.2l2.1,5.2c0.1,0.2,0.1,0.4,0.2,0.6
					c0,0.2,0.1,0.4,0.1,0.6c0-0.2,0.1-0.4,0.1-0.6c0-0.2,0.1-0.4,0.2-0.6l2.1-5.2c0-0.1,0.1-0.2,0.2-0.2c0.1-0.1,0.2-0.1,0.3-0.1
					h1.1l-3.3,8.1h-1.3L184.9,73.9z"/>
				<path class="st2" d="M196,71.4c0,0.1,0,0.3-0.1,0.4c-0.1,0.1-0.1,0.2-0.2,0.3c-0.1,0.1-0.2,0.2-0.3,0.2
					c-0.1,0.1-0.3,0.1-0.4,0.1s-0.3,0-0.4-0.1c-0.1-0.1-0.2-0.1-0.3-0.2c-0.1-0.1-0.2-0.2-0.2-0.3s-0.1-0.2-0.1-0.4
					c0-0.1,0-0.3,0.1-0.4s0.1-0.2,0.2-0.3c0.1-0.1,0.2-0.2,0.3-0.2c0.1-0.1,0.2-0.1,0.4-0.1s0.3,0,0.4,0.1c0.1,0.1,0.2,0.1,0.3,0.2
					c0.1,0.1,0.2,0.2,0.2,0.3C196,71.1,196,71.2,196,71.4z M195.7,73.9V82h-1.4v-8.1H195.7z"/>
				<path class="st2" d="M203.8,75.3c0,0.1-0.1,0.1-0.1,0.1c0,0-0.1,0-0.2,0c-0.1,0-0.2,0-0.3-0.1s-0.2-0.1-0.4-0.2
					c-0.1-0.1-0.3-0.2-0.5-0.2c-0.2-0.1-0.5-0.1-0.8-0.1c-0.4,0-0.7,0.1-1,0.2c-0.3,0.1-0.6,0.3-0.8,0.6s-0.4,0.6-0.5,1
					s-0.2,0.8-0.2,1.3c0,0.5,0.1,0.9,0.2,1.3c0.1,0.4,0.3,0.7,0.5,1c0.2,0.3,0.4,0.5,0.7,0.6c0.3,0.1,0.6,0.2,1,0.2
					c0.3,0,0.6,0,0.9-0.1c0.2-0.1,0.4-0.2,0.6-0.3c0.1-0.1,0.3-0.2,0.4-0.3c0.1-0.1,0.2-0.1,0.3-0.1c0.1,0,0.2,0,0.3,0.1l0.4,0.5
					c-0.4,0.4-0.8,0.7-1.3,0.9c-0.5,0.2-1.1,0.3-1.7,0.3c-0.5,0-1-0.1-1.4-0.3s-0.8-0.5-1.1-0.8c-0.3-0.4-0.6-0.8-0.8-1.3
					c-0.2-0.5-0.3-1.1-0.3-1.8c0-0.6,0.1-1.2,0.3-1.7c0.2-0.5,0.4-1,0.7-1.3c0.3-0.4,0.7-0.7,1.2-0.9s1-0.3,1.6-0.3
					c0.6,0,1.1,0.1,1.5,0.3s0.8,0.4,1.2,0.8L203.8,75.3z"/>
				<path class="st2" d="M208.9,73.8c0.5,0,0.9,0.1,1.3,0.2c0.4,0.2,0.8,0.4,1.1,0.7s0.5,0.7,0.7,1.1c0.2,0.5,0.3,1,0.3,1.5
					c0,0.2,0,0.4-0.1,0.4c0,0.1-0.1,0.1-0.3,0.1h-5.4c0,0.5,0.1,1,0.2,1.3c0.1,0.4,0.3,0.7,0.5,0.9c0.2,0.3,0.5,0.4,0.8,0.6
					c0.3,0.1,0.7,0.2,1,0.2c0.4,0,0.7,0,0.9-0.1c0.3-0.1,0.5-0.2,0.7-0.3c0.2-0.1,0.3-0.2,0.5-0.3c0.1-0.1,0.2-0.1,0.3-0.1
					c0.1,0,0.2,0,0.3,0.1l0.4,0.5c-0.2,0.2-0.4,0.4-0.6,0.6c-0.2,0.2-0.5,0.3-0.8,0.4c-0.3,0.1-0.6,0.2-0.9,0.2s-0.6,0.1-0.9,0.1
					c-0.6,0-1.1-0.1-1.5-0.3c-0.5-0.2-0.9-0.5-1.2-0.8s-0.6-0.8-0.8-1.4c-0.2-0.5-0.3-1.2-0.3-1.9c0-0.6,0.1-1.1,0.3-1.6
					c0.2-0.5,0.4-0.9,0.7-1.3c0.3-0.4,0.7-0.6,1.2-0.8C207.8,73.9,208.3,73.8,208.9,73.8z M209,74.8c-0.7,0-1.2,0.2-1.6,0.6
					s-0.6,0.9-0.7,1.7h4.4c0-0.3,0-0.6-0.1-0.9s-0.2-0.5-0.4-0.7c-0.2-0.2-0.4-0.4-0.6-0.5S209.3,74.8,209,74.8z"/>
			</g>
			<g>
			</g>
			<g class="st1">
				<path class="st2" d="M108.6,89.2v6.9h0.4c0.1,0,0.2,0,0.3,0s0.1-0.1,0.2-0.2l2.6-2.7c0.1-0.1,0.2-0.2,0.2-0.2
					c0.1-0.1,0.2-0.1,0.3-0.1h1.3l-3,3.2c-0.1,0.1-0.1,0.2-0.2,0.2c-0.1,0.1-0.2,0.1-0.2,0.2c0.1,0.1,0.2,0.1,0.3,0.2
					c0.1,0.1,0.2,0.2,0.2,0.3l3.2,4h-1.3c-0.1,0-0.2,0-0.3-0.1c-0.1,0-0.2-0.1-0.2-0.2l-2.7-3.3c-0.1-0.1-0.2-0.2-0.2-0.2
					c-0.1,0-0.2-0.1-0.4-0.1h-0.4v3.9h-1.4V89.2H108.6z"/>
				<path class="st2" d="M117.5,90.4c0,0.1,0,0.3-0.1,0.4c-0.1,0.1-0.1,0.2-0.2,0.3c-0.1,0.1-0.2,0.2-0.3,0.2
					c-0.1,0.1-0.3,0.1-0.4,0.1s-0.3,0-0.4-0.1c-0.1-0.1-0.2-0.1-0.3-0.2c-0.1-0.1-0.2-0.2-0.2-0.3c-0.1-0.1-0.1-0.2-0.1-0.4
					c0-0.1,0-0.3,0.1-0.4c0.1-0.1,0.1-0.2,0.2-0.3c0.1-0.1,0.2-0.2,0.3-0.2c0.1-0.1,0.2-0.1,0.4-0.1s0.3,0,0.4,0.1
					c0.1,0.1,0.2,0.1,0.3,0.2c0.1,0.1,0.2,0.2,0.2,0.3C117.4,90.1,117.5,90.2,117.5,90.4z M117.1,92.9v8.1h-1.4v-8.1H117.1z"/>
				<path class="st2" d="M119.6,101v-8.1h0.8c0.2,0,0.3,0.1,0.4,0.3l0.1,0.9c0.4-0.4,0.7-0.7,1.2-0.9s0.9-0.4,1.5-0.4
					c0.4,0,0.8,0.1,1.2,0.2c0.3,0.1,0.6,0.4,0.8,0.6c0.2,0.3,0.4,0.6,0.5,1s0.2,0.8,0.2,1.3v5.2H125v-5.2c0-0.6-0.1-1.1-0.4-1.4
					c-0.3-0.3-0.7-0.5-1.3-0.5c-0.4,0-0.8,0.1-1.2,0.3c-0.4,0.2-0.7,0.5-1,0.8v6H119.6z"/>
				<path class="st2" d="M134.2,101c-0.2,0-0.3-0.1-0.4-0.3l-0.1-1c-0.3,0.4-0.7,0.8-1.2,1c-0.4,0.3-1,0.4-1.5,0.4
					c-0.5,0-0.9-0.1-1.3-0.3c-0.4-0.2-0.7-0.4-1-0.8c-0.3-0.3-0.5-0.8-0.6-1.3c-0.1-0.5-0.2-1.1-0.2-1.8c0-0.6,0.1-1.2,0.2-1.7
					s0.4-1,0.7-1.3c0.3-0.4,0.7-0.7,1.1-0.9s0.9-0.3,1.5-0.3c0.5,0,0.9,0.1,1.3,0.3s0.7,0.4,0.9,0.7v-4.5h1.4V101H134.2z M131.5,100
					c0.5,0,0.9-0.1,1.2-0.3c0.3-0.2,0.7-0.5,1-0.9v-3.9c-0.3-0.4-0.5-0.6-0.9-0.7s-0.7-0.2-1-0.2c-0.8,0-1.3,0.3-1.7,0.8
					c-0.4,0.5-0.6,1.3-0.6,2.3c0,0.5,0,1,0.1,1.4c0.1,0.4,0.2,0.7,0.4,0.9c0.2,0.2,0.4,0.4,0.6,0.5S131.2,100,131.5,100z"/>
				<path class="st2" d="M137.3,94.1c0-0.1,0-0.3,0.1-0.4c0.1-0.1,0.1-0.2,0.2-0.3s0.2-0.2,0.3-0.2c0.1-0.1,0.3-0.1,0.4-0.1
					s0.3,0,0.4,0.1c0.1,0.1,0.2,0.1,0.3,0.2s0.2,0.2,0.2,0.3c0.1,0.1,0.1,0.3,0.1,0.4c0,0.1,0,0.3-0.1,0.4c-0.1,0.1-0.1,0.2-0.2,0.3
					s-0.2,0.2-0.3,0.2c-0.1,0.1-0.3,0.1-0.4,0.1s-0.3,0-0.4-0.1s-0.2-0.1-0.3-0.2s-0.2-0.2-0.2-0.3
					C137.4,94.4,137.3,94.3,137.3,94.1z M137.3,100.1c0-0.1,0-0.3,0.1-0.4c0.1-0.1,0.1-0.2,0.2-0.3s0.2-0.2,0.3-0.2
					c0.1-0.1,0.3-0.1,0.4-0.1s0.3,0,0.4,0.1c0.1,0.1,0.2,0.1,0.3,0.2s0.2,0.2,0.2,0.3c0.1,0.1,0.1,0.3,0.1,0.4c0,0.1,0,0.3-0.1,0.4
					c-0.1,0.1-0.1,0.2-0.2,0.3s-0.2,0.2-0.3,0.2c-0.1,0.1-0.3,0.1-0.4,0.1s-0.3,0-0.4-0.1s-0.2-0.1-0.3-0.2s-0.2-0.2-0.2-0.3
					C137.4,100.4,137.3,100.3,137.3,100.1z"/>
				<path class="st2" d="M150.7,91.3c0,0.1-0.1,0.1-0.2,0.2s-0.1,0.1-0.2,0.1c-0.1,0-0.2,0-0.3-0.1c-0.1-0.1-0.3-0.2-0.5-0.3
					c-0.2-0.1-0.4-0.2-0.7-0.3c-0.3-0.1-0.6-0.1-0.9-0.1c-0.3,0-0.7,0-0.9,0.1c-0.3,0.1-0.5,0.2-0.7,0.4s-0.3,0.3-0.4,0.6
					c-0.1,0.2-0.1,0.4-0.1,0.7c0,0.3,0.1,0.6,0.2,0.8c0.2,0.2,0.4,0.4,0.6,0.5c0.3,0.1,0.6,0.3,0.9,0.4c0.3,0.1,0.7,0.2,1,0.3
					c0.3,0.1,0.7,0.2,1,0.4c0.3,0.1,0.6,0.3,0.9,0.6c0.3,0.2,0.5,0.5,0.6,0.8c0.2,0.3,0.2,0.7,0.2,1.2c0,0.5-0.1,1-0.3,1.4
					c-0.2,0.4-0.4,0.8-0.7,1.1s-0.7,0.6-1.2,0.8c-0.5,0.2-1,0.3-1.6,0.3c-0.7,0-1.4-0.1-2-0.4c-0.6-0.3-1.1-0.6-1.6-1.1l0.4-0.7
					c0-0.1,0.1-0.1,0.2-0.1c0.1,0,0.1-0.1,0.2-0.1c0.1,0,0.2,0.1,0.4,0.2c0.1,0.1,0.3,0.3,0.5,0.4c0.2,0.1,0.5,0.3,0.8,0.4
					s0.7,0.2,1.1,0.2c0.4,0,0.7-0.1,1-0.2c0.3-0.1,0.5-0.2,0.7-0.4c0.2-0.2,0.4-0.4,0.5-0.7c0.1-0.3,0.2-0.5,0.2-0.9
					c0-0.3-0.1-0.6-0.2-0.9c-0.2-0.2-0.4-0.4-0.6-0.6s-0.5-0.3-0.9-0.4c-0.3-0.1-0.7-0.2-1-0.3c-0.3-0.1-0.7-0.2-1-0.4
					c-0.3-0.1-0.6-0.3-0.9-0.6s-0.5-0.5-0.6-0.9s-0.2-0.8-0.2-1.3c0-0.4,0.1-0.8,0.2-1.2c0.2-0.4,0.4-0.7,0.7-1s0.7-0.5,1.1-0.7
					c0.4-0.2,0.9-0.3,1.5-0.3c0.6,0,1.2,0.1,1.8,0.3c0.5,0.2,1,0.5,1.4,0.9L150.7,91.3z"/>
				<path class="st2" d="M156.3,92.8c0.5,0,0.9,0.1,1.3,0.2c0.4,0.2,0.8,0.4,1.1,0.7c0.3,0.3,0.5,0.7,0.7,1.1c0.2,0.5,0.3,1,0.3,1.5
					c0,0.2,0,0.4-0.1,0.4c0,0.1-0.1,0.1-0.3,0.1h-5.4c0,0.5,0.1,1,0.2,1.3s0.3,0.7,0.5,0.9c0.2,0.3,0.5,0.4,0.8,0.6
					c0.3,0.1,0.7,0.2,1,0.2c0.4,0,0.7,0,0.9-0.1s0.5-0.2,0.7-0.3c0.2-0.1,0.3-0.2,0.5-0.3c0.1-0.1,0.2-0.1,0.3-0.1
					c0.1,0,0.2,0,0.3,0.1l0.4,0.5c-0.2,0.2-0.4,0.4-0.6,0.6c-0.2,0.2-0.5,0.3-0.8,0.4c-0.3,0.1-0.6,0.2-0.9,0.2
					c-0.3,0.1-0.6,0.1-0.9,0.1c-0.6,0-1.1-0.1-1.5-0.3c-0.5-0.2-0.9-0.5-1.2-0.8c-0.3-0.4-0.6-0.8-0.8-1.4c-0.2-0.5-0.3-1.2-0.3-1.9
					c0-0.6,0.1-1.1,0.3-1.6c0.2-0.5,0.4-0.9,0.7-1.3c0.3-0.4,0.7-0.6,1.2-0.8S155.7,92.8,156.3,92.8z M156.3,93.8
					c-0.7,0-1.2,0.2-1.6,0.6c-0.4,0.4-0.6,0.9-0.7,1.7h4.4c0-0.3,0-0.6-0.1-0.9c-0.1-0.3-0.2-0.5-0.4-0.7c-0.2-0.2-0.4-0.4-0.6-0.5
					S156.7,93.8,156.3,93.8z"/>
				<path class="st2" d="M161.5,101v-8.1h0.8c0.2,0,0.3,0,0.3,0.1c0.1,0.1,0.1,0.2,0.1,0.3l0.1,1.3c0.3-0.6,0.6-1,1-1.3
					c0.4-0.3,0.9-0.5,1.4-0.5c0.2,0,0.4,0,0.6,0.1c0.2,0.1,0.3,0.1,0.5,0.2l-0.2,1.1c0,0.1-0.1,0.2-0.2,0.2c-0.1,0-0.2,0-0.3-0.1
					c-0.2,0-0.4-0.1-0.6-0.1c-0.5,0-0.9,0.1-1.2,0.4c-0.3,0.3-0.6,0.7-0.8,1.3v5.2H161.5z"/>
				<path class="st2" d="M166.9,92.9h1.2c0.1,0,0.2,0,0.3,0.1s0.1,0.1,0.2,0.2l2.1,5.2c0.1,0.2,0.1,0.4,0.2,0.6
					c0,0.2,0.1,0.4,0.1,0.6c0-0.2,0.1-0.4,0.1-0.6c0-0.2,0.1-0.4,0.2-0.6l2.1-5.2c0-0.1,0.1-0.2,0.2-0.2c0.1-0.1,0.2-0.1,0.3-0.1
					h1.1l-3.3,8.1h-1.3L166.9,92.9z"/>
				<path class="st2" d="M178,90.4c0,0.1,0,0.3-0.1,0.4c-0.1,0.1-0.1,0.2-0.2,0.3c-0.1,0.1-0.2,0.2-0.3,0.2
					c-0.1,0.1-0.3,0.1-0.4,0.1s-0.3,0-0.4-0.1c-0.1-0.1-0.2-0.1-0.3-0.2c-0.1-0.1-0.2-0.2-0.2-0.3c-0.1-0.1-0.1-0.2-0.1-0.4
					c0-0.1,0-0.3,0.1-0.4c0.1-0.1,0.1-0.2,0.2-0.3c0.1-0.1,0.2-0.2,0.3-0.2c0.1-0.1,0.2-0.1,0.4-0.1s0.3,0,0.4,0.1
					c0.1,0.1,0.2,0.1,0.3,0.2c0.1,0.1,0.2,0.2,0.2,0.3C178,90.1,178,90.2,178,90.4z M177.7,92.9v8.1h-1.4v-8.1H177.7z"/>
				<path class="st2" d="M185.7,94.3c0,0.1-0.1,0.1-0.1,0.1c0,0-0.1,0-0.2,0c-0.1,0-0.2,0-0.3-0.1s-0.2-0.1-0.4-0.2
					s-0.3-0.2-0.5-0.2c-0.2-0.1-0.5-0.1-0.8-0.1c-0.4,0-0.7,0.1-1,0.2c-0.3,0.1-0.6,0.3-0.8,0.6c-0.2,0.3-0.4,0.6-0.5,1
					s-0.2,0.8-0.2,1.3c0,0.5,0.1,0.9,0.2,1.3c0.1,0.4,0.3,0.7,0.5,1s0.4,0.5,0.7,0.6c0.3,0.1,0.6,0.2,1,0.2c0.3,0,0.6,0,0.9-0.1
					c0.2-0.1,0.4-0.2,0.6-0.3c0.1-0.1,0.3-0.2,0.4-0.3c0.1-0.1,0.2-0.1,0.3-0.1c0.1,0,0.2,0,0.3,0.1l0.4,0.5
					c-0.4,0.4-0.8,0.7-1.3,0.9c-0.5,0.2-1.1,0.3-1.7,0.3c-0.5,0-1-0.1-1.4-0.3s-0.8-0.5-1.1-0.8c-0.3-0.4-0.6-0.8-0.8-1.3
					c-0.2-0.5-0.3-1.1-0.3-1.8c0-0.6,0.1-1.2,0.3-1.7c0.2-0.5,0.4-1,0.7-1.3c0.3-0.4,0.7-0.7,1.2-0.9s1-0.3,1.6-0.3
					c0.6,0,1.1,0.1,1.5,0.3c0.4,0.2,0.8,0.4,1.2,0.8L185.7,94.3z"/>
				<path class="st2" d="M190.9,92.8c0.5,0,0.9,0.1,1.3,0.2c0.4,0.2,0.8,0.4,1.1,0.7s0.5,0.7,0.7,1.1c0.2,0.5,0.3,1,0.3,1.5
					c0,0.2,0,0.4-0.1,0.4c0,0.1-0.1,0.1-0.3,0.1h-5.4c0,0.5,0.1,1,0.2,1.3s0.3,0.7,0.5,0.9c0.2,0.3,0.5,0.4,0.8,0.6
					c0.3,0.1,0.7,0.2,1,0.2c0.4,0,0.7,0,0.9-0.1s0.5-0.2,0.7-0.3c0.2-0.1,0.3-0.2,0.5-0.3s0.2-0.1,0.3-0.1c0.1,0,0.2,0,0.3,0.1
					l0.4,0.5c-0.2,0.2-0.4,0.4-0.6,0.6s-0.5,0.3-0.8,0.4c-0.3,0.1-0.6,0.2-0.9,0.2c-0.3,0.1-0.6,0.1-0.9,0.1c-0.6,0-1.1-0.1-1.5-0.3
					c-0.5-0.2-0.9-0.5-1.2-0.8c-0.3-0.4-0.6-0.8-0.8-1.4c-0.2-0.5-0.3-1.2-0.3-1.9c0-0.6,0.1-1.1,0.3-1.6c0.2-0.5,0.4-0.9,0.7-1.3
					c0.3-0.4,0.7-0.6,1.2-0.8S190.3,92.8,190.9,92.8z M190.9,93.8c-0.7,0-1.2,0.2-1.6,0.6c-0.4,0.4-0.6,0.9-0.7,1.7h4.4
					c0-0.3,0-0.6-0.1-0.9c-0.1-0.3-0.2-0.5-0.4-0.7c-0.2-0.2-0.4-0.4-0.6-0.5S191.2,93.8,190.9,93.8z"/>
			</g>
			<g>
			</g>
			<g class="st1">
				<path class="st2" d="M111.8,132.2c-0.1,0.1-0.2,0.2-0.3,0.2c-0.1,0-0.2,0-0.3-0.1c-0.1-0.1-0.2-0.1-0.4-0.2
					c-0.1-0.1-0.3-0.1-0.5-0.2c-0.2-0.1-0.4-0.1-0.7-0.1c-0.2,0-0.5,0-0.6,0.1s-0.4,0.1-0.5,0.3c-0.1,0.1-0.2,0.2-0.3,0.4
					c-0.1,0.1-0.1,0.3-0.1,0.5c0,0.2,0.1,0.4,0.2,0.5c0.1,0.1,0.3,0.3,0.5,0.4c0.2,0.1,0.4,0.2,0.7,0.3c0.3,0.1,0.5,0.2,0.8,0.2
					s0.5,0.2,0.8,0.3c0.3,0.1,0.5,0.2,0.7,0.4s0.4,0.4,0.5,0.6c0.1,0.2,0.2,0.5,0.2,0.8c0,0.4-0.1,0.7-0.2,1s-0.3,0.6-0.6,0.8
					c-0.3,0.2-0.6,0.4-1,0.5c-0.4,0.1-0.8,0.2-1.3,0.2c-0.6,0-1.1-0.1-1.5-0.3c-0.5-0.2-0.8-0.4-1.2-0.7l0.3-0.5
					c0-0.1,0.1-0.1,0.2-0.2c0.1,0,0.1-0.1,0.2-0.1c0.1,0,0.2,0,0.3,0.1c0.1,0.1,0.2,0.2,0.4,0.2c0.2,0.1,0.3,0.2,0.6,0.2
					c0.2,0.1,0.5,0.1,0.8,0.1c0.3,0,0.5,0,0.7-0.1s0.4-0.2,0.5-0.3s0.2-0.3,0.3-0.4c0.1-0.2,0.1-0.3,0.1-0.5c0-0.2-0.1-0.4-0.2-0.6
					s-0.3-0.3-0.5-0.4c-0.2-0.1-0.4-0.2-0.7-0.3c-0.3-0.1-0.5-0.2-0.8-0.2c-0.3-0.1-0.5-0.2-0.8-0.3s-0.5-0.2-0.7-0.4
					c-0.2-0.2-0.4-0.4-0.5-0.6c-0.1-0.2-0.2-0.5-0.2-0.9c0-0.3,0.1-0.6,0.2-0.9c0.1-0.3,0.3-0.5,0.6-0.8c0.2-0.2,0.5-0.4,0.9-0.5
					c0.4-0.1,0.8-0.2,1.2-0.2c0.5,0,1,0.1,1.4,0.3c0.4,0.2,0.8,0.4,1.1,0.7L111.8,132.2z"/>
				<path class="st2" d="M117.3,130.8c0.5,0,0.9,0.1,1.3,0.2c0.4,0.2,0.8,0.4,1.1,0.7c0.3,0.3,0.5,0.7,0.7,1.1
					c0.2,0.5,0.3,1,0.3,1.5c0,0.2,0,0.4-0.1,0.4c0,0.1-0.1,0.1-0.3,0.1h-5.4c0,0.5,0.1,1,0.2,1.3s0.3,0.7,0.5,0.9
					c0.2,0.3,0.5,0.4,0.8,0.6c0.3,0.1,0.7,0.2,1,0.2c0.4,0,0.7,0,0.9-0.1s0.5-0.2,0.7-0.3c0.2-0.1,0.3-0.2,0.5-0.3
					c0.1-0.1,0.2-0.1,0.3-0.1c0.1,0,0.2,0,0.3,0.1l0.4,0.5c-0.2,0.2-0.4,0.4-0.6,0.6c-0.2,0.2-0.5,0.3-0.8,0.4
					c-0.3,0.1-0.6,0.2-0.9,0.2c-0.3,0.1-0.6,0.1-0.9,0.1c-0.6,0-1.1-0.1-1.5-0.3c-0.5-0.2-0.9-0.5-1.2-0.8c-0.3-0.4-0.6-0.8-0.8-1.4
					c-0.2-0.5-0.3-1.2-0.3-1.9c0-0.6,0.1-1.1,0.3-1.6c0.2-0.5,0.4-0.9,0.7-1.3c0.3-0.4,0.7-0.6,1.2-0.8S116.7,130.8,117.3,130.8z
					 M117.4,131.8c-0.7,0-1.2,0.2-1.6,0.6c-0.4,0.4-0.6,0.9-0.7,1.7h4.4c0-0.3,0-0.6-0.1-0.9c-0.1-0.3-0.2-0.5-0.4-0.7
					c-0.2-0.2-0.4-0.4-0.6-0.5S117.7,131.8,117.4,131.8z"/>
				<path class="st2" d="M124.1,127.2V139h-1.4v-11.8H124.1z"/>
				<path class="st2" d="M129.8,130.8c0.5,0,0.9,0.1,1.3,0.2c0.4,0.2,0.8,0.4,1.1,0.7c0.3,0.3,0.5,0.7,0.7,1.1
					c0.2,0.5,0.3,1,0.3,1.5c0,0.2,0,0.4-0.1,0.4c0,0.1-0.1,0.1-0.3,0.1h-5.4c0,0.5,0.1,1,0.2,1.3s0.3,0.7,0.5,0.9
					c0.2,0.3,0.5,0.4,0.8,0.6c0.3,0.1,0.7,0.2,1,0.2c0.4,0,0.7,0,0.9-0.1s0.5-0.2,0.7-0.3c0.2-0.1,0.3-0.2,0.5-0.3
					c0.1-0.1,0.2-0.1,0.3-0.1c0.1,0,0.2,0,0.3,0.1l0.4,0.5c-0.2,0.2-0.4,0.4-0.6,0.6c-0.2,0.2-0.5,0.3-0.8,0.4
					c-0.3,0.1-0.6,0.2-0.9,0.2c-0.3,0.1-0.6,0.1-0.9,0.1c-0.6,0-1.1-0.1-1.5-0.3c-0.5-0.2-0.9-0.5-1.2-0.8c-0.3-0.4-0.6-0.8-0.8-1.4
					c-0.2-0.5-0.3-1.2-0.3-1.9c0-0.6,0.1-1.1,0.3-1.6c0.2-0.5,0.4-0.9,0.7-1.3c0.3-0.4,0.7-0.6,1.2-0.8S129.2,130.8,129.8,130.8z
					 M129.8,131.8c-0.7,0-1.2,0.2-1.6,0.6c-0.4,0.4-0.6,0.9-0.7,1.7h4.4c0-0.3,0-0.6-0.1-0.9c-0.1-0.3-0.2-0.5-0.4-0.7
					c-0.2-0.2-0.4-0.4-0.6-0.5S130.2,131.8,129.8,131.8z"/>
				<path class="st2" d="M140.5,132.3c0,0.1-0.1,0.1-0.1,0.1c0,0-0.1,0-0.2,0c-0.1,0-0.2,0-0.3-0.1s-0.2-0.1-0.4-0.2
					s-0.3-0.2-0.5-0.2c-0.2-0.1-0.5-0.1-0.8-0.1c-0.4,0-0.7,0.1-1,0.2c-0.3,0.1-0.6,0.3-0.8,0.6c-0.2,0.3-0.4,0.6-0.5,1
					s-0.2,0.8-0.2,1.3c0,0.5,0.1,0.9,0.2,1.3c0.1,0.4,0.3,0.7,0.5,1s0.4,0.5,0.7,0.6c0.3,0.1,0.6,0.2,1,0.2c0.3,0,0.6,0,0.9-0.1
					c0.2-0.1,0.4-0.2,0.6-0.3c0.1-0.1,0.3-0.2,0.4-0.3c0.1-0.1,0.2-0.1,0.3-0.1c0.1,0,0.2,0,0.3,0.1l0.4,0.5
					c-0.4,0.4-0.8,0.7-1.3,0.9c-0.5,0.2-1.1,0.3-1.7,0.3c-0.5,0-1-0.1-1.4-0.3s-0.8-0.5-1.1-0.8c-0.3-0.4-0.6-0.8-0.8-1.3
					c-0.2-0.5-0.3-1.1-0.3-1.8c0-0.6,0.1-1.2,0.3-1.7c0.2-0.5,0.4-1,0.7-1.3c0.3-0.4,0.7-0.7,1.2-0.9s1-0.3,1.6-0.3
					c0.6,0,1.1,0.1,1.5,0.3c0.4,0.2,0.8,0.4,1.2,0.8L140.5,132.3z"/>
				<path class="st2" d="M144.9,139.1c-0.6,0-1.1-0.2-1.5-0.5c-0.3-0.4-0.5-0.9-0.5-1.5v-5h-1c-0.1,0-0.2,0-0.2-0.1
					s-0.1-0.1-0.1-0.2v-0.6l1.3-0.2l0.3-2.5c0-0.1,0-0.1,0.1-0.2s0.1-0.1,0.2-0.1h0.7v2.8h2.3v1h-2.3v4.9c0,0.3,0.1,0.6,0.2,0.8
					c0.2,0.2,0.4,0.2,0.6,0.2c0.1,0,0.3,0,0.4-0.1s0.2-0.1,0.3-0.1c0.1,0,0.1-0.1,0.2-0.1c0.1,0,0.1-0.1,0.1-0.1
					c0.1,0,0.1,0,0.2,0.1l0.4,0.7c-0.2,0.2-0.5,0.4-0.9,0.5C145.6,139.1,145.3,139.1,144.9,139.1z"/>
				<path class="st2" d="M151.7,130.8c0.6,0,1.1,0.1,1.6,0.3c0.5,0.2,0.9,0.5,1.2,0.8c0.3,0.4,0.6,0.8,0.8,1.3s0.3,1.1,0.3,1.7
					c0,0.6-0.1,1.2-0.3,1.7s-0.4,0.9-0.8,1.3c-0.3,0.4-0.7,0.6-1.2,0.8c-0.5,0.2-1,0.3-1.6,0.3c-0.6,0-1.1-0.1-1.6-0.3
					c-0.5-0.2-0.9-0.5-1.2-0.8c-0.3-0.4-0.6-0.8-0.8-1.3c-0.2-0.5-0.3-1.1-0.3-1.7c0-0.6,0.1-1.2,0.3-1.7c0.2-0.5,0.4-1,0.8-1.3
					c0.3-0.4,0.7-0.6,1.2-0.8C150.6,130.9,151.1,130.8,151.7,130.8z M151.7,138c0.8,0,1.4-0.3,1.8-0.8c0.4-0.5,0.6-1.3,0.6-2.2
					c0-1-0.2-1.7-0.6-2.3c-0.4-0.5-1-0.8-1.8-0.8c-0.4,0-0.8,0.1-1.1,0.2c-0.3,0.1-0.5,0.3-0.7,0.6c-0.2,0.3-0.3,0.6-0.4,1
					c-0.1,0.4-0.1,0.8-0.1,1.3c0,0.5,0,0.9,0.1,1.3s0.2,0.7,0.4,1s0.4,0.5,0.7,0.6C150.9,137.9,151.3,138,151.7,138z"/>
				<path class="st2" d="M157.3,139v-8.1h0.8c0.2,0,0.3,0,0.3,0.1c0.1,0.1,0.1,0.2,0.1,0.3l0.1,1.3c0.3-0.6,0.6-1,1-1.3
					c0.4-0.3,0.9-0.5,1.4-0.5c0.2,0,0.4,0,0.6,0.1c0.2,0.1,0.3,0.1,0.5,0.2l-0.2,1.1c0,0.1-0.1,0.2-0.2,0.2c-0.1,0-0.2,0-0.3-0.1
					c-0.2,0-0.4-0.1-0.6-0.1c-0.5,0-0.9,0.1-1.2,0.4c-0.3,0.3-0.6,0.7-0.8,1.3v5.2H157.3z"/>
				<path class="st2" d="M163.6,132.1c0-0.1,0-0.3,0.1-0.4c0.1-0.1,0.1-0.2,0.2-0.3s0.2-0.2,0.3-0.2c0.1-0.1,0.3-0.1,0.4-0.1
					s0.3,0,0.4,0.1c0.1,0.1,0.2,0.1,0.3,0.2s0.2,0.2,0.2,0.3c0.1,0.1,0.1,0.3,0.1,0.4c0,0.1,0,0.3-0.1,0.4c-0.1,0.1-0.1,0.2-0.2,0.3
					s-0.2,0.2-0.3,0.2c-0.1,0.1-0.3,0.1-0.4,0.1s-0.3,0-0.4-0.1s-0.2-0.1-0.3-0.2s-0.2-0.2-0.2-0.3
					C163.6,132.4,163.6,132.3,163.6,132.1z M163.6,138.1c0-0.1,0-0.3,0.1-0.4c0.1-0.1,0.1-0.2,0.2-0.3s0.2-0.2,0.3-0.2
					c0.1-0.1,0.3-0.1,0.4-0.1s0.3,0,0.4,0.1c0.1,0.1,0.2,0.1,0.3,0.2s0.2,0.2,0.2,0.3c0.1,0.1,0.1,0.3,0.1,0.4c0,0.1,0,0.3-0.1,0.4
					c-0.1,0.1-0.1,0.2-0.2,0.3s-0.2,0.2-0.3,0.2c-0.1,0.1-0.3,0.1-0.4,0.1s-0.3,0-0.4-0.1s-0.2-0.1-0.3-0.2s-0.2-0.2-0.2-0.3
					C163.6,138.4,163.6,138.3,163.6,138.1z"/>
			</g>
			<g>
			</g>
			<g class="st1">
				<path class="st2" d="M107.2,158v-8.1h0.8c0.2,0,0.3,0.1,0.4,0.3l0.1,0.8c0.3-0.4,0.6-0.7,1-0.9s0.8-0.4,1.3-0.4
					c0.5,0,1,0.2,1.3,0.5c0.3,0.3,0.6,0.7,0.7,1.2c0.1-0.3,0.3-0.5,0.4-0.8c0.2-0.2,0.4-0.4,0.6-0.5c0.2-0.1,0.5-0.2,0.7-0.3
					c0.3-0.1,0.5-0.1,0.8-0.1c0.4,0,0.8,0.1,1.1,0.2c0.3,0.1,0.6,0.3,0.8,0.6c0.2,0.3,0.4,0.6,0.5,1c0.1,0.4,0.2,0.8,0.2,1.3v5.2
					h-1.4v-5.2c0-0.6-0.1-1.1-0.4-1.4c-0.3-0.3-0.7-0.5-1.2-0.5c-0.2,0-0.5,0-0.7,0.1c-0.2,0.1-0.4,0.2-0.6,0.4
					c-0.2,0.2-0.3,0.4-0.4,0.6c-0.1,0.2-0.1,0.5-0.1,0.8v5.2h-1.4v-5.2c0-0.7-0.1-1.1-0.4-1.5c-0.3-0.3-0.6-0.5-1.1-0.5
					c-0.4,0-0.7,0.1-1,0.3c-0.3,0.2-0.6,0.4-0.8,0.8v6H107.2z"/>
				<path class="st2" d="M126.3,158h-0.6c-0.1,0-0.3,0-0.3-0.1c-0.1,0-0.1-0.1-0.2-0.3l-0.2-0.8c-0.2,0.2-0.4,0.4-0.6,0.5
					c-0.2,0.2-0.4,0.3-0.6,0.4c-0.2,0.1-0.5,0.2-0.7,0.2c-0.3,0.1-0.5,0.1-0.8,0.1c-0.3,0-0.6,0-0.9-0.1c-0.3-0.1-0.5-0.2-0.7-0.4
					c-0.2-0.2-0.4-0.4-0.5-0.7s-0.2-0.6-0.2-1c0-0.3,0.1-0.6,0.3-0.9c0.2-0.3,0.5-0.6,0.9-0.8c0.4-0.2,0.9-0.4,1.5-0.6
					c0.6-0.1,1.4-0.2,2.3-0.2v-0.6c0-0.6-0.1-1.1-0.4-1.4c-0.3-0.3-0.7-0.5-1.2-0.5c-0.3,0-0.6,0-0.9,0.1s-0.4,0.2-0.6,0.3
					s-0.3,0.2-0.4,0.3c-0.1,0.1-0.2,0.1-0.4,0.1c-0.1,0-0.2,0-0.3-0.1c-0.1,0-0.1-0.1-0.2-0.2l-0.3-0.5c0.4-0.4,0.9-0.8,1.4-1
					c0.5-0.2,1.1-0.3,1.7-0.3c0.5,0,0.9,0.1,1.2,0.2c0.4,0.1,0.6,0.4,0.9,0.6c0.2,0.3,0.4,0.6,0.5,1c0.1,0.4,0.2,0.8,0.2,1.2V158z
					 M122.6,157.1c0.3,0,0.5,0,0.7-0.1s0.4-0.1,0.6-0.2c0.2-0.1,0.4-0.2,0.5-0.3c0.2-0.1,0.3-0.3,0.5-0.5v-1.7c-0.7,0-1.2,0-1.7,0.1
					c-0.5,0.1-0.8,0.2-1.1,0.3c-0.3,0.1-0.5,0.3-0.6,0.5c-0.1,0.2-0.2,0.4-0.2,0.6c0,0.2,0,0.4,0.1,0.6c0.1,0.2,0.2,0.3,0.3,0.4
					c0.1,0.1,0.3,0.2,0.4,0.2C122.2,157.1,122.4,157.1,122.6,157.1z"/>
				<path class="st2" d="M130.9,158.1c-0.6,0-1.1-0.2-1.5-0.5c-0.3-0.4-0.5-0.9-0.5-1.5v-5h-1c-0.1,0-0.2,0-0.2-0.1
					s-0.1-0.1-0.1-0.2v-0.6l1.3-0.2l0.3-2.5c0-0.1,0-0.1,0.1-0.2s0.1-0.1,0.2-0.1h0.7v2.8h2.3v1h-2.3v4.9c0,0.3,0.1,0.6,0.2,0.8
					c0.2,0.2,0.4,0.2,0.6,0.2c0.1,0,0.3,0,0.4-0.1s0.2-0.1,0.3-0.1c0.1,0,0.1-0.1,0.2-0.1c0.1,0,0.1-0.1,0.1-0.1
					c0.1,0,0.1,0,0.2,0.1l0.4,0.7c-0.2,0.2-0.5,0.4-0.9,0.5C131.6,158.1,131.2,158.1,130.9,158.1z"/>
				<path class="st2" d="M139.9,151.3c0,0.1-0.1,0.1-0.1,0.1c0,0-0.1,0-0.2,0c-0.1,0-0.2,0-0.3-0.1s-0.2-0.1-0.4-0.2
					s-0.3-0.2-0.5-0.2c-0.2-0.1-0.5-0.1-0.8-0.1c-0.4,0-0.7,0.1-1,0.2c-0.3,0.1-0.6,0.3-0.8,0.6c-0.2,0.3-0.4,0.6-0.5,1
					s-0.2,0.8-0.2,1.3c0,0.5,0.1,0.9,0.2,1.3c0.1,0.4,0.3,0.7,0.5,1s0.4,0.5,0.7,0.6c0.3,0.1,0.6,0.2,1,0.2c0.3,0,0.6,0,0.9-0.1
					c0.2-0.1,0.4-0.2,0.6-0.3c0.1-0.1,0.3-0.2,0.4-0.3c0.1-0.1,0.2-0.1,0.3-0.1c0.1,0,0.2,0,0.3,0.1l0.4,0.5
					c-0.4,0.4-0.8,0.7-1.3,0.9c-0.5,0.2-1.1,0.3-1.7,0.3c-0.5,0-1-0.1-1.4-0.3s-0.8-0.5-1.1-0.8c-0.3-0.4-0.6-0.8-0.8-1.3
					c-0.2-0.5-0.3-1.1-0.3-1.8c0-0.6,0.1-1.2,0.3-1.7c0.2-0.5,0.4-1,0.7-1.3c0.3-0.4,0.7-0.7,1.2-0.9s1-0.3,1.6-0.3
					c0.6,0,1.1,0.1,1.5,0.3c0.4,0.2,0.8,0.4,1.2,0.8L139.9,151.3z"/>
				<path class="st2" d="M141.9,158v-11.8h1.4v4.8c0.3-0.4,0.7-0.7,1.2-0.9c0.4-0.2,0.9-0.3,1.5-0.3c0.4,0,0.8,0.1,1.2,0.2
					c0.3,0.1,0.6,0.4,0.8,0.6c0.2,0.3,0.4,0.6,0.5,1s0.2,0.8,0.2,1.3v5.2h-1.4v-5.2c0-0.6-0.1-1.1-0.4-1.4c-0.3-0.3-0.7-0.5-1.3-0.5
					c-0.4,0-0.8,0.1-1.2,0.3c-0.4,0.2-0.7,0.5-1,0.8v6H141.9z"/>
				<path class="st2" d="M152.5,156.7h5v1.3H151v-11.5h1.6V156.7z"/>
				<path class="st2" d="M164.9,158h-0.6c-0.1,0-0.3,0-0.3-0.1c-0.1,0-0.1-0.1-0.2-0.3l-0.2-0.8c-0.2,0.2-0.4,0.4-0.6,0.5
					c-0.2,0.2-0.4,0.3-0.6,0.4c-0.2,0.1-0.5,0.2-0.7,0.2c-0.3,0.1-0.5,0.1-0.8,0.1c-0.3,0-0.6,0-0.9-0.1c-0.3-0.1-0.5-0.2-0.7-0.4
					c-0.2-0.2-0.4-0.4-0.5-0.7s-0.2-0.6-0.2-1c0-0.3,0.1-0.6,0.3-0.9c0.2-0.3,0.5-0.6,0.9-0.8c0.4-0.2,0.9-0.4,1.5-0.6
					c0.6-0.1,1.4-0.2,2.3-0.2v-0.6c0-0.6-0.1-1.1-0.4-1.4c-0.3-0.3-0.7-0.5-1.2-0.5c-0.3,0-0.6,0-0.9,0.1s-0.4,0.2-0.6,0.3
					s-0.3,0.2-0.4,0.3c-0.1,0.1-0.2,0.1-0.4,0.1c-0.1,0-0.2,0-0.3-0.1c-0.1,0-0.1-0.1-0.2-0.2l-0.3-0.5c0.4-0.4,0.9-0.8,1.4-1
					c0.5-0.2,1.1-0.3,1.7-0.3c0.5,0,0.9,0.1,1.2,0.2c0.4,0.1,0.6,0.4,0.9,0.6c0.2,0.3,0.4,0.6,0.5,1c0.1,0.4,0.2,0.8,0.2,1.2V158z
					 M161.2,157.1c0.3,0,0.5,0,0.7-0.1s0.4-0.1,0.6-0.2c0.2-0.1,0.4-0.2,0.5-0.3c0.2-0.1,0.3-0.3,0.5-0.5v-1.7c-0.7,0-1.2,0-1.7,0.1
					c-0.5,0.1-0.8,0.2-1.1,0.3c-0.3,0.1-0.5,0.3-0.6,0.5c-0.1,0.2-0.2,0.4-0.2,0.6c0,0.2,0,0.4,0.1,0.6c0.1,0.2,0.2,0.3,0.3,0.4
					c0.1,0.1,0.3,0.2,0.4,0.2C160.9,157.1,161,157.1,161.2,157.1z"/>
				<path class="st2" d="M167.1,158v-11.8h1.4v4.8c0.3-0.4,0.7-0.7,1.2-0.9c0.4-0.2,0.9-0.4,1.5-0.4c0.5,0,0.9,0.1,1.3,0.3
					c0.4,0.2,0.7,0.4,1,0.8c0.3,0.3,0.5,0.8,0.6,1.3s0.2,1.1,0.2,1.8c0,0.6-0.1,1.2-0.2,1.7s-0.4,1-0.7,1.3s-0.7,0.7-1.1,0.9
					s-0.9,0.3-1.5,0.3c-0.5,0-1-0.1-1.3-0.3c-0.4-0.2-0.7-0.5-1-0.8l-0.1,0.7c0,0.2-0.2,0.3-0.4,0.3H167.1z M170.8,150.9
					c-0.5,0-0.9,0.1-1.2,0.3c-0.3,0.2-0.7,0.5-1,0.9v3.9c0.3,0.4,0.5,0.6,0.9,0.7s0.7,0.2,1,0.2c0.8,0,1.3-0.3,1.7-0.8
					c0.4-0.5,0.6-1.3,0.6-2.3c0-0.5,0-1-0.1-1.4s-0.2-0.7-0.4-0.9c-0.2-0.2-0.4-0.4-0.6-0.5C171.4,151,171.1,150.9,170.8,150.9z"/>
				<path class="st2" d="M179.2,149.8c0.5,0,0.9,0.1,1.3,0.2c0.4,0.2,0.8,0.4,1.1,0.7c0.3,0.3,0.5,0.7,0.7,1.1
					c0.2,0.5,0.3,1,0.3,1.5c0,0.2,0,0.4-0.1,0.4c0,0.1-0.1,0.1-0.3,0.1h-5.4c0,0.5,0.1,1,0.2,1.3s0.3,0.7,0.5,0.9
					c0.2,0.3,0.5,0.4,0.8,0.6c0.3,0.1,0.7,0.2,1,0.2c0.4,0,0.7,0,0.9-0.1s0.5-0.2,0.7-0.3c0.2-0.1,0.3-0.2,0.5-0.3
					c0.1-0.1,0.2-0.1,0.3-0.1c0.1,0,0.2,0,0.3,0.1l0.4,0.5c-0.2,0.2-0.4,0.4-0.6,0.6c-0.2,0.2-0.5,0.3-0.8,0.4
					c-0.3,0.1-0.6,0.2-0.9,0.2c-0.3,0.1-0.6,0.1-0.9,0.1c-0.6,0-1.1-0.1-1.5-0.3c-0.5-0.2-0.9-0.5-1.2-0.8c-0.3-0.4-0.6-0.8-0.8-1.4
					c-0.2-0.5-0.3-1.2-0.3-1.9c0-0.6,0.1-1.1,0.3-1.6c0.2-0.5,0.4-0.9,0.7-1.3c0.3-0.4,0.7-0.6,1.2-0.8S178.7,149.8,179.2,149.8z
					 M179.3,150.8c-0.7,0-1.2,0.2-1.6,0.6c-0.4,0.4-0.6,0.9-0.7,1.7h4.4c0-0.3,0-0.6-0.1-0.9c-0.1-0.3-0.2-0.5-0.4-0.7
					c-0.2-0.2-0.4-0.4-0.6-0.5S179.6,150.8,179.3,150.8z"/>
				<path class="st2" d="M186,146.2V158h-1.4v-11.8H186z"/>
				<path class="st2" d="M193.2,151.2c-0.1,0.1-0.2,0.2-0.3,0.2c-0.1,0-0.2,0-0.3-0.1c-0.1-0.1-0.2-0.1-0.4-0.2s-0.3-0.1-0.5-0.2
					c-0.2-0.1-0.4-0.1-0.7-0.1c-0.2,0-0.5,0-0.6,0.1s-0.4,0.1-0.5,0.3c-0.1,0.1-0.2,0.2-0.3,0.4c-0.1,0.1-0.1,0.3-0.1,0.5
					c0,0.2,0.1,0.4,0.2,0.5c0.1,0.1,0.3,0.3,0.5,0.4c0.2,0.1,0.4,0.2,0.7,0.3c0.3,0.1,0.5,0.2,0.8,0.2s0.5,0.2,0.8,0.3
					c0.2,0.1,0.5,0.2,0.7,0.4s0.4,0.4,0.5,0.6c0.1,0.2,0.2,0.5,0.2,0.8c0,0.4-0.1,0.7-0.2,1c-0.1,0.3-0.3,0.6-0.6,0.8
					c-0.3,0.2-0.6,0.4-1,0.5c-0.4,0.1-0.8,0.2-1.3,0.2c-0.6,0-1.1-0.1-1.5-0.3c-0.5-0.2-0.8-0.4-1.2-0.7l0.3-0.5
					c0-0.1,0.1-0.1,0.2-0.2c0.1,0,0.1-0.1,0.2-0.1c0.1,0,0.2,0,0.3,0.1c0.1,0.1,0.2,0.2,0.4,0.2c0.2,0.1,0.3,0.2,0.6,0.2
					c0.2,0.1,0.5,0.1,0.8,0.1c0.3,0,0.5,0,0.7-0.1s0.4-0.2,0.5-0.3c0.1-0.1,0.2-0.3,0.3-0.4c0.1-0.2,0.1-0.3,0.1-0.5
					c0-0.2-0.1-0.4-0.2-0.6s-0.3-0.3-0.5-0.4c-0.2-0.1-0.4-0.2-0.7-0.3c-0.3-0.1-0.5-0.2-0.8-0.2c-0.3-0.1-0.5-0.2-0.8-0.3
					s-0.5-0.2-0.7-0.4c-0.2-0.2-0.4-0.4-0.5-0.6c-0.1-0.2-0.2-0.5-0.2-0.9c0-0.3,0.1-0.6,0.2-0.9c0.1-0.3,0.3-0.5,0.6-0.8
					c0.2-0.2,0.5-0.4,0.9-0.5c0.4-0.1,0.8-0.2,1.2-0.2c0.5,0,1,0.1,1.4,0.3c0.4,0.2,0.8,0.4,1.1,0.7L193.2,151.2z"/>
				<path class="st2" d="M195.3,151.1c0-0.1,0-0.3,0.1-0.4c0.1-0.1,0.1-0.2,0.2-0.3s0.2-0.2,0.3-0.2c0.1-0.1,0.3-0.1,0.4-0.1
					s0.3,0,0.4,0.1c0.1,0.1,0.2,0.1,0.3,0.2s0.2,0.2,0.2,0.3c0.1,0.1,0.1,0.3,0.1,0.4c0,0.1,0,0.3-0.1,0.4c-0.1,0.1-0.1,0.2-0.2,0.3
					s-0.2,0.2-0.3,0.2c-0.1,0.1-0.3,0.1-0.4,0.1s-0.3,0-0.4-0.1c-0.1-0.1-0.2-0.1-0.3-0.2s-0.2-0.2-0.2-0.3
					C195.3,151.4,195.3,151.3,195.3,151.1z M195.3,157.1c0-0.1,0-0.3,0.1-0.4c0.1-0.1,0.1-0.2,0.2-0.3s0.2-0.2,0.3-0.2
					c0.1-0.1,0.3-0.1,0.4-0.1s0.3,0,0.4,0.1c0.1,0.1,0.2,0.1,0.3,0.2s0.2,0.2,0.2,0.3c0.1,0.1,0.1,0.3,0.1,0.4c0,0.1,0,0.3-0.1,0.4
					c-0.1,0.1-0.1,0.2-0.2,0.3s-0.2,0.2-0.3,0.2c-0.1,0.1-0.3,0.1-0.4,0.1s-0.3,0-0.4-0.1c-0.1-0.1-0.2-0.1-0.3-0.2
					s-0.2-0.2-0.2-0.3C195.3,157.4,195.3,157.3,195.3,157.1z"/>
			</g>
			<g>
			</g>
			<g class="st1">
				<path class="st2" d="M111.8,170.2c-0.1,0.1-0.2,0.2-0.3,0.2c-0.1,0-0.2,0-0.3-0.1c-0.1-0.1-0.2-0.1-0.4-0.2
					c-0.1-0.1-0.3-0.1-0.5-0.2c-0.2-0.1-0.4-0.1-0.7-0.1c-0.2,0-0.5,0-0.6,0.1s-0.4,0.1-0.5,0.3c-0.1,0.1-0.2,0.2-0.3,0.4
					c-0.1,0.1-0.1,0.3-0.1,0.5c0,0.2,0.1,0.4,0.2,0.5c0.1,0.1,0.3,0.3,0.5,0.4c0.2,0.1,0.4,0.2,0.7,0.3c0.3,0.1,0.5,0.2,0.8,0.2
					s0.5,0.2,0.8,0.3c0.3,0.1,0.5,0.2,0.7,0.4s0.4,0.4,0.5,0.6c0.1,0.2,0.2,0.5,0.2,0.8c0,0.4-0.1,0.7-0.2,1s-0.3,0.6-0.6,0.8
					c-0.3,0.2-0.6,0.4-1,0.5c-0.4,0.1-0.8,0.2-1.3,0.2c-0.6,0-1.1-0.1-1.5-0.3c-0.5-0.2-0.8-0.4-1.2-0.7l0.3-0.5
					c0-0.1,0.1-0.1,0.2-0.2c0.1,0,0.1-0.1,0.2-0.1c0.1,0,0.2,0,0.3,0.1c0.1,0.1,0.2,0.2,0.4,0.2c0.2,0.1,0.3,0.2,0.6,0.2
					c0.2,0.1,0.5,0.1,0.8,0.1c0.3,0,0.5,0,0.7-0.1s0.4-0.2,0.5-0.3s0.2-0.3,0.3-0.4c0.1-0.2,0.1-0.3,0.1-0.5c0-0.2-0.1-0.4-0.2-0.6
					s-0.3-0.3-0.5-0.4c-0.2-0.1-0.4-0.2-0.7-0.3c-0.3-0.1-0.5-0.2-0.8-0.2c-0.3-0.1-0.5-0.2-0.8-0.3s-0.5-0.2-0.7-0.4
					c-0.2-0.2-0.4-0.4-0.5-0.6c-0.1-0.2-0.2-0.5-0.2-0.9c0-0.3,0.1-0.6,0.2-0.9c0.1-0.3,0.3-0.5,0.6-0.8c0.2-0.2,0.5-0.4,0.9-0.5
					c0.4-0.1,0.8-0.2,1.2-0.2c0.5,0,1,0.1,1.4,0.3c0.4,0.2,0.8,0.4,1.1,0.7L111.8,170.2z"/>
				<path class="st2" d="M117.4,168.8c0.6,0,1.1,0.1,1.6,0.3c0.5,0.2,0.9,0.5,1.2,0.8c0.3,0.4,0.6,0.8,0.8,1.3s0.3,1.1,0.3,1.7
					c0,0.6-0.1,1.2-0.3,1.7s-0.4,0.9-0.8,1.3c-0.3,0.4-0.7,0.6-1.2,0.8c-0.5,0.2-1,0.3-1.6,0.3c-0.6,0-1.1-0.1-1.6-0.3
					c-0.5-0.2-0.9-0.5-1.2-0.8c-0.3-0.4-0.6-0.8-0.8-1.3c-0.2-0.5-0.3-1.1-0.3-1.7c0-0.6,0.1-1.2,0.3-1.7c0.2-0.5,0.4-1,0.8-1.3
					c0.3-0.4,0.7-0.6,1.2-0.8C116.3,168.9,116.8,168.8,117.4,168.8z M117.4,176c0.8,0,1.4-0.3,1.8-0.8c0.4-0.5,0.6-1.3,0.6-2.2
					c0-1-0.2-1.7-0.6-2.3c-0.4-0.5-1-0.8-1.8-0.8c-0.4,0-0.8,0.1-1.1,0.2c-0.3,0.1-0.5,0.3-0.7,0.6c-0.2,0.3-0.3,0.6-0.4,1
					c-0.1,0.4-0.1,0.8-0.1,1.3c0,0.5,0,0.9,0.1,1.3s0.2,0.7,0.4,1s0.4,0.5,0.7,0.6C116.6,175.9,117,176,117.4,176z"/>
				<path class="st2" d="M124.6,165.2V177h-1.4v-11.8H124.6z"/>
				<path class="st2" d="M128.3,168.9v5.2c0,0.6,0.1,1.1,0.4,1.4c0.3,0.3,0.7,0.5,1.3,0.5c0.4,0,0.8-0.1,1.2-0.3
					c0.4-0.2,0.7-0.5,1-0.8v-6h1.4v8.1h-0.8c-0.2,0-0.3-0.1-0.4-0.3l-0.1-0.9c-0.4,0.4-0.7,0.7-1.2,0.9c-0.4,0.2-0.9,0.4-1.5,0.4
					c-0.4,0-0.8-0.1-1.2-0.2c-0.3-0.1-0.6-0.4-0.9-0.6c-0.2-0.3-0.4-0.6-0.5-1s-0.2-0.8-0.2-1.3v-5.2H128.3z"/>
				<path class="st2" d="M138.5,177.1c-0.6,0-1.1-0.2-1.5-0.5c-0.3-0.4-0.5-0.9-0.5-1.5v-5h-1c-0.1,0-0.2,0-0.2-0.1
					s-0.1-0.1-0.1-0.2v-0.6l1.3-0.2l0.3-2.5c0-0.1,0-0.1,0.1-0.2s0.1-0.1,0.2-0.1h0.7v2.8h2.3v1h-2.3v4.9c0,0.3,0.1,0.6,0.2,0.8
					c0.2,0.2,0.4,0.2,0.6,0.2c0.1,0,0.3,0,0.4-0.1s0.2-0.1,0.3-0.1c0.1,0,0.1-0.1,0.2-0.1c0.1,0,0.1-0.1,0.1-0.1
					c0.1,0,0.1,0,0.2,0.1l0.4,0.7c-0.2,0.2-0.5,0.4-0.9,0.5C139.2,177.1,138.8,177.1,138.5,177.1z"/>
				<path class="st2" d="M143.9,166.4c0,0.1,0,0.3-0.1,0.4c-0.1,0.1-0.1,0.2-0.2,0.3c-0.1,0.1-0.2,0.2-0.3,0.2
					c-0.1,0.1-0.3,0.1-0.4,0.1s-0.3,0-0.4-0.1c-0.1-0.1-0.2-0.1-0.3-0.2c-0.1-0.1-0.2-0.2-0.2-0.3c-0.1-0.1-0.1-0.2-0.1-0.4
					c0-0.1,0-0.3,0.1-0.4c0.1-0.1,0.1-0.2,0.2-0.3c0.1-0.1,0.2-0.2,0.3-0.2c0.1-0.1,0.2-0.1,0.4-0.1s0.3,0,0.4,0.1
					c0.1,0.1,0.2,0.1,0.3,0.2c0.1,0.1,0.2,0.2,0.2,0.3C143.8,166.1,143.9,166.2,143.9,166.4z M143.6,168.9v8.1h-1.4v-8.1H143.6z"/>
				<path class="st2" d="M149.3,168.8c0.6,0,1.1,0.1,1.6,0.3c0.5,0.2,0.9,0.5,1.2,0.8c0.3,0.4,0.6,0.8,0.8,1.3s0.3,1.1,0.3,1.7
					c0,0.6-0.1,1.2-0.3,1.7s-0.4,0.9-0.8,1.3c-0.3,0.4-0.7,0.6-1.2,0.8c-0.5,0.2-1,0.3-1.6,0.3c-0.6,0-1.1-0.1-1.6-0.3
					c-0.5-0.2-0.9-0.5-1.2-0.8c-0.3-0.4-0.6-0.8-0.8-1.3c-0.2-0.5-0.3-1.1-0.3-1.7c0-0.6,0.1-1.2,0.3-1.7c0.2-0.5,0.4-1,0.8-1.3
					c0.3-0.4,0.7-0.6,1.2-0.8C148.2,168.9,148.8,168.8,149.3,168.8z M149.3,176c0.8,0,1.4-0.3,1.8-0.8c0.4-0.5,0.6-1.3,0.6-2.2
					c0-1-0.2-1.7-0.6-2.3c-0.4-0.5-1-0.8-1.8-0.8c-0.4,0-0.8,0.1-1.1,0.2c-0.3,0.1-0.5,0.3-0.7,0.6c-0.2,0.3-0.3,0.6-0.4,1
					c-0.1,0.4-0.1,0.8-0.1,1.3c0,0.5,0,0.9,0.1,1.3s0.2,0.7,0.4,1s0.4,0.5,0.7,0.6C148.6,175.9,148.9,176,149.3,176z"/>
				<path class="st2" d="M155,177v-8.1h0.8c0.2,0,0.3,0.1,0.4,0.3l0.1,0.9c0.4-0.4,0.7-0.7,1.2-0.9s0.9-0.4,1.5-0.4
					c0.4,0,0.8,0.1,1.2,0.2c0.3,0.1,0.6,0.4,0.8,0.6c0.2,0.3,0.4,0.6,0.5,1s0.2,0.8,0.2,1.3v5.2h-1.4v-5.2c0-0.6-0.1-1.1-0.4-1.4
					c-0.3-0.3-0.7-0.5-1.3-0.5c-0.4,0-0.8,0.1-1.2,0.3c-0.4,0.2-0.7,0.5-1,0.8v6H155z"/>
				<path class="st2" d="M163.7,170.1c0-0.1,0-0.3,0.1-0.4c0.1-0.1,0.1-0.2,0.2-0.3s0.2-0.2,0.3-0.2c0.1-0.1,0.3-0.1,0.4-0.1
					s0.3,0,0.4,0.1c0.1,0.1,0.2,0.1,0.3,0.2s0.2,0.2,0.2,0.3c0.1,0.1,0.1,0.3,0.1,0.4c0,0.1,0,0.3-0.1,0.4c-0.1,0.1-0.1,0.2-0.2,0.3
					s-0.2,0.2-0.3,0.2c-0.1,0.1-0.3,0.1-0.4,0.1s-0.3,0-0.4-0.1s-0.2-0.1-0.3-0.2s-0.2-0.2-0.2-0.3
					C163.7,170.4,163.7,170.3,163.7,170.1z M163.7,176.1c0-0.1,0-0.3,0.1-0.4c0.1-0.1,0.1-0.2,0.2-0.3s0.2-0.2,0.3-0.2
					c0.1-0.1,0.3-0.1,0.4-0.1s0.3,0,0.4,0.1c0.1,0.1,0.2,0.1,0.3,0.2s0.2,0.2,0.2,0.3c0.1,0.1,0.1,0.3,0.1,0.4c0,0.1,0,0.3-0.1,0.4
					c-0.1,0.1-0.1,0.2-0.2,0.3s-0.2,0.2-0.3,0.2c-0.1,0.1-0.3,0.1-0.4,0.1s-0.3,0-0.4-0.1s-0.2-0.1-0.3-0.2s-0.2-0.2-0.2-0.3
					C163.7,176.4,163.7,176.3,163.7,176.1z"/>
				<path class="st2" d="M175.6,170.2c-0.1,0.1-0.2,0.2-0.3,0.2c-0.1,0-0.2,0-0.3-0.1c-0.1-0.1-0.2-0.1-0.4-0.2
					c-0.1-0.1-0.3-0.1-0.5-0.2c-0.2-0.1-0.4-0.1-0.7-0.1c-0.2,0-0.5,0-0.6,0.1s-0.4,0.1-0.5,0.3c-0.1,0.1-0.2,0.2-0.3,0.4
					c-0.1,0.1-0.1,0.3-0.1,0.5c0,0.2,0.1,0.4,0.2,0.5c0.1,0.1,0.3,0.3,0.5,0.4c0.2,0.1,0.4,0.2,0.7,0.3c0.3,0.1,0.5,0.2,0.8,0.2
					s0.5,0.2,0.8,0.3c0.3,0.1,0.5,0.2,0.7,0.4s0.4,0.4,0.5,0.6c0.1,0.2,0.2,0.5,0.2,0.8c0,0.4-0.1,0.7-0.2,1s-0.3,0.6-0.6,0.8
					c-0.3,0.2-0.6,0.4-1,0.5c-0.4,0.1-0.8,0.2-1.3,0.2c-0.6,0-1.1-0.1-1.5-0.3c-0.5-0.2-0.8-0.4-1.2-0.7l0.3-0.5
					c0-0.1,0.1-0.1,0.2-0.2c0.1,0,0.1-0.1,0.2-0.1c0.1,0,0.2,0,0.3,0.1c0.1,0.1,0.2,0.2,0.4,0.2c0.2,0.1,0.3,0.2,0.6,0.2
					c0.2,0.1,0.5,0.1,0.8,0.1c0.3,0,0.5,0,0.7-0.1s0.4-0.2,0.5-0.3s0.2-0.3,0.3-0.4c0.1-0.2,0.1-0.3,0.1-0.5c0-0.2-0.1-0.4-0.2-0.6
					s-0.3-0.3-0.5-0.4c-0.2-0.1-0.4-0.2-0.7-0.3c-0.3-0.1-0.5-0.2-0.8-0.2c-0.3-0.1-0.5-0.2-0.8-0.3s-0.5-0.2-0.7-0.4
					c-0.2-0.2-0.4-0.4-0.5-0.6c-0.1-0.2-0.2-0.5-0.2-0.9c0-0.3,0.1-0.6,0.2-0.9c0.1-0.3,0.3-0.5,0.6-0.8c0.2-0.2,0.5-0.4,0.9-0.5
					c0.4-0.1,0.8-0.2,1.2-0.2c0.5,0,1,0.1,1.4,0.3c0.4,0.2,0.8,0.4,1.1,0.7L175.6,170.2z"/>
				<path class="st2" d="M180.4,177.1c-0.6,0-1.1-0.2-1.5-0.5c-0.3-0.4-0.5-0.9-0.5-1.5v-5h-1c-0.1,0-0.2,0-0.2-0.1
					s-0.1-0.1-0.1-0.2v-0.6l1.3-0.2l0.3-2.5c0-0.1,0-0.1,0.1-0.2s0.1-0.1,0.2-0.1h0.7v2.8h2.3v1h-2.3v4.9c0,0.3,0.1,0.6,0.2,0.8
					c0.2,0.2,0.4,0.2,0.6,0.2c0.1,0,0.3,0,0.4-0.1s0.2-0.1,0.3-0.1c0.1,0,0.1-0.1,0.2-0.1c0.1,0,0.1-0.1,0.1-0.1
					c0.1,0,0.1,0,0.2,0.1l0.4,0.7c-0.2,0.2-0.5,0.4-0.9,0.5C181.1,177.1,180.7,177.1,180.4,177.1z"/>
				<path class="st2" d="M187.2,168.8c0.6,0,1.1,0.1,1.6,0.3c0.5,0.2,0.9,0.5,1.2,0.8c0.3,0.4,0.6,0.8,0.8,1.3s0.3,1.1,0.3,1.7
					c0,0.6-0.1,1.2-0.3,1.7s-0.4,0.9-0.8,1.3c-0.3,0.4-0.7,0.6-1.2,0.8c-0.5,0.2-1,0.3-1.6,0.3c-0.6,0-1.1-0.1-1.6-0.3
					c-0.5-0.2-0.9-0.5-1.2-0.8c-0.3-0.4-0.6-0.8-0.8-1.3c-0.2-0.5-0.3-1.1-0.3-1.7c0-0.6,0.1-1.2,0.3-1.7c0.2-0.5,0.4-1,0.8-1.3
					c0.3-0.4,0.7-0.6,1.2-0.8C186,168.9,186.6,168.8,187.2,168.8z M187.2,176c0.8,0,1.4-0.3,1.8-0.8c0.4-0.5,0.6-1.3,0.6-2.2
					c0-1-0.2-1.7-0.6-2.3c-0.4-0.5-1-0.8-1.8-0.8c-0.4,0-0.8,0.1-1.1,0.2c-0.3,0.1-0.5,0.3-0.7,0.6c-0.2,0.3-0.3,0.6-0.4,1
					c-0.1,0.4-0.1,0.8-0.1,1.3c0,0.5,0,0.9,0.1,1.3s0.2,0.7,0.4,1s0.4,0.5,0.7,0.6C186.4,175.9,186.8,176,187.2,176z"/>
				<path class="st2" d="M198.3,170.3c0,0.1-0.1,0.1-0.1,0.1c0,0-0.1,0-0.2,0c-0.1,0-0.2,0-0.3-0.1s-0.2-0.1-0.4-0.2
					c-0.1-0.1-0.3-0.2-0.5-0.2c-0.2-0.1-0.5-0.1-0.8-0.1c-0.4,0-0.7,0.1-1,0.2c-0.3,0.1-0.6,0.3-0.8,0.6s-0.4,0.6-0.5,1
					s-0.2,0.8-0.2,1.3c0,0.5,0.1,0.9,0.2,1.3c0.1,0.4,0.3,0.7,0.5,1c0.2,0.3,0.4,0.5,0.7,0.6c0.3,0.1,0.6,0.2,1,0.2
					c0.3,0,0.6,0,0.9-0.1c0.2-0.1,0.4-0.2,0.6-0.3c0.1-0.1,0.3-0.2,0.4-0.3c0.1-0.1,0.2-0.1,0.3-0.1c0.1,0,0.2,0,0.3,0.1l0.4,0.5
					c-0.4,0.4-0.8,0.7-1.3,0.9c-0.5,0.2-1.1,0.3-1.7,0.3c-0.5,0-1-0.1-1.4-0.3s-0.8-0.5-1.1-0.8c-0.3-0.4-0.6-0.8-0.8-1.3
					c-0.2-0.5-0.3-1.1-0.3-1.8c0-0.6,0.1-1.2,0.3-1.7c0.2-0.5,0.4-1,0.7-1.3c0.3-0.4,0.7-0.7,1.2-0.9s1-0.3,1.6-0.3
					c0.6,0,1.1,0.1,1.5,0.3s0.8,0.4,1.2,0.8L198.3,170.3z"/>
				<path class="st2" d="M201.7,165.2v6.9h0.4c0.1,0,0.2,0,0.3,0c0.1,0,0.1-0.1,0.2-0.2l2.6-2.7c0.1-0.1,0.2-0.2,0.2-0.2
					c0.1-0.1,0.2-0.1,0.3-0.1h1.3l-3,3.2c-0.1,0.1-0.1,0.2-0.2,0.2c-0.1,0.1-0.2,0.1-0.2,0.2c0.1,0.1,0.2,0.1,0.3,0.2
					c0.1,0.1,0.2,0.2,0.2,0.3l3.2,4h-1.3c-0.1,0-0.2,0-0.3-0.1c-0.1,0-0.2-0.1-0.2-0.2l-2.7-3.3c-0.1-0.1-0.2-0.2-0.2-0.2
					c-0.1,0-0.2-0.1-0.4-0.1h-0.4v3.9h-1.4v-11.8H201.7z"/>
				<path class="st2" d="M208.3,171.6h4v1.2h-4V171.6z"/>
				<path class="st2" d="M216.6,177.1c-0.6,0-1.1-0.2-1.5-0.5c-0.3-0.4-0.5-0.9-0.5-1.5v-5h-1c-0.1,0-0.2,0-0.2-0.1
					s-0.1-0.1-0.1-0.2v-0.6l1.3-0.2l0.3-2.5c0-0.1,0-0.1,0.1-0.2s0.1-0.1,0.2-0.1h0.7v2.8h2.3v1h-2.3v4.9c0,0.3,0.1,0.6,0.2,0.8
					c0.2,0.2,0.4,0.2,0.6,0.2c0.1,0,0.3,0,0.4-0.1s0.2-0.1,0.3-0.1c0.1,0,0.1-0.1,0.2-0.1c0.1,0,0.1-0.1,0.1-0.1
					c0.1,0,0.1,0,0.2,0.1l0.4,0.7c-0.2,0.2-0.5,0.4-0.9,0.5C217.4,177.1,217,177.1,216.6,177.1z"/>
				<path class="st2" d="M220.2,177v-8.1h0.8c0.2,0,0.3,0,0.3,0.1c0.1,0.1,0.1,0.2,0.1,0.3l0.1,1.3c0.3-0.6,0.6-1,1-1.3
					c0.4-0.3,0.9-0.5,1.4-0.5c0.2,0,0.4,0,0.6,0.1s0.3,0.1,0.5,0.2l-0.2,1.1c0,0.1-0.1,0.2-0.2,0.2c-0.1,0-0.2,0-0.3-0.1
					c-0.2,0-0.4-0.1-0.6-0.1c-0.5,0-0.9,0.1-1.2,0.4c-0.3,0.3-0.6,0.7-0.8,1.3v5.2H220.2z"/>
				<path class="st2" d="M232.3,177h-0.6c-0.1,0-0.3,0-0.3-0.1c-0.1,0-0.1-0.1-0.2-0.3l-0.2-0.8c-0.2,0.2-0.4,0.4-0.6,0.5
					c-0.2,0.2-0.4,0.3-0.6,0.4c-0.2,0.1-0.5,0.2-0.7,0.2c-0.3,0.1-0.5,0.1-0.8,0.1c-0.3,0-0.6,0-0.9-0.1c-0.3-0.1-0.5-0.2-0.7-0.4
					c-0.2-0.2-0.4-0.4-0.5-0.7c-0.1-0.3-0.2-0.6-0.2-1c0-0.3,0.1-0.6,0.3-0.9c0.2-0.3,0.5-0.6,0.9-0.8c0.4-0.2,0.9-0.4,1.5-0.6
					c0.6-0.1,1.4-0.2,2.3-0.2v-0.6c0-0.6-0.1-1.1-0.4-1.4c-0.3-0.3-0.7-0.5-1.2-0.5c-0.3,0-0.6,0-0.9,0.1c-0.2,0.1-0.4,0.2-0.6,0.3
					c-0.2,0.1-0.3,0.2-0.4,0.3s-0.2,0.1-0.4,0.1c-0.1,0-0.2,0-0.3-0.1c-0.1,0-0.1-0.1-0.2-0.2l-0.3-0.5c0.4-0.4,0.9-0.8,1.4-1
					c0.5-0.2,1.1-0.3,1.7-0.3c0.5,0,0.9,0.1,1.2,0.2c0.4,0.1,0.6,0.4,0.9,0.6c0.2,0.3,0.4,0.6,0.5,1c0.1,0.4,0.2,0.8,0.2,1.2V177z
					 M228.6,176.1c0.2,0,0.5,0,0.7-0.1s0.4-0.1,0.6-0.2c0.2-0.1,0.4-0.2,0.5-0.3c0.2-0.1,0.3-0.3,0.5-0.5v-1.7c-0.7,0-1.2,0-1.7,0.1
					c-0.5,0.1-0.8,0.2-1.1,0.3c-0.3,0.1-0.5,0.3-0.6,0.5c-0.1,0.2-0.2,0.4-0.2,0.6c0,0.2,0,0.4,0.1,0.6c0.1,0.2,0.2,0.3,0.3,0.4
					c0.1,0.1,0.3,0.2,0.4,0.2C228.2,176.1,228.4,176.1,228.6,176.1z"/>
				<path class="st2" d="M240.1,177c-0.2,0-0.3-0.1-0.4-0.3l-0.1-1c-0.3,0.4-0.7,0.8-1.2,1c-0.4,0.3-1,0.4-1.5,0.4
					c-0.5,0-0.9-0.1-1.3-0.3c-0.4-0.2-0.7-0.4-1-0.8c-0.3-0.3-0.5-0.8-0.6-1.3c-0.1-0.5-0.2-1.1-0.2-1.8c0-0.6,0.1-1.2,0.2-1.7
					s0.4-1,0.7-1.3c0.3-0.4,0.7-0.7,1.1-0.9c0.4-0.2,0.9-0.3,1.5-0.3c0.5,0,0.9,0.1,1.3,0.3c0.4,0.2,0.7,0.4,0.9,0.7v-4.5h1.4V177
					H240.1z M237.4,176c0.5,0,0.9-0.1,1.2-0.3c0.3-0.2,0.7-0.5,1-0.9v-3.9c-0.3-0.4-0.5-0.6-0.9-0.7c-0.3-0.1-0.7-0.2-1-0.2
					c-0.8,0-1.3,0.3-1.7,0.8c-0.4,0.5-0.6,1.3-0.6,2.3c0,0.5,0,1,0.1,1.4c0.1,0.4,0.2,0.7,0.4,0.9c0.2,0.2,0.4,0.4,0.6,0.5
					S237,176,237.4,176z"/>
				<path class="st2" d="M246.6,168.8c0.5,0,0.9,0.1,1.3,0.2c0.4,0.2,0.8,0.4,1.1,0.7c0.3,0.3,0.5,0.7,0.7,1.1
					c0.2,0.5,0.3,1,0.3,1.5c0,0.2,0,0.4-0.1,0.4c0,0.1-0.1,0.1-0.3,0.1h-5.4c0,0.5,0.1,1,0.2,1.3c0.1,0.4,0.3,0.7,0.5,0.9
					c0.2,0.3,0.5,0.4,0.8,0.6c0.3,0.1,0.7,0.2,1,0.2c0.4,0,0.7,0,0.9-0.1c0.3-0.1,0.5-0.2,0.7-0.3c0.2-0.1,0.3-0.2,0.5-0.3
					s0.2-0.1,0.3-0.1c0.1,0,0.2,0,0.3,0.1l0.4,0.5c-0.2,0.2-0.4,0.4-0.6,0.6c-0.2,0.2-0.5,0.3-0.8,0.4c-0.3,0.1-0.6,0.2-0.9,0.2
					c-0.3,0.1-0.6,0.1-0.9,0.1c-0.6,0-1.1-0.1-1.5-0.3c-0.5-0.2-0.9-0.5-1.2-0.8c-0.3-0.4-0.6-0.8-0.8-1.4c-0.2-0.5-0.3-1.2-0.3-1.9
					c0-0.6,0.1-1.1,0.3-1.6c0.2-0.5,0.4-0.9,0.7-1.3c0.3-0.4,0.7-0.6,1.2-0.8C245.5,168.9,246,168.8,246.6,168.8z M246.6,169.8
					c-0.7,0-1.2,0.2-1.6,0.6c-0.4,0.4-0.6,0.9-0.7,1.7h4.4c0-0.3,0-0.6-0.1-0.9c-0.1-0.3-0.2-0.5-0.4-0.7c-0.2-0.2-0.4-0.4-0.6-0.5
					S246.9,169.8,246.6,169.8z"/>
				<path class="st2" d="M251.7,177v-8.1h0.8c0.2,0,0.3,0,0.3,0.1c0.1,0.1,0.1,0.2,0.1,0.3l0.1,1.3c0.3-0.6,0.6-1,1-1.3
					c0.4-0.3,0.9-0.5,1.4-0.5c0.2,0,0.4,0,0.6,0.1s0.3,0.1,0.5,0.2l-0.2,1.1c0,0.1-0.1,0.2-0.2,0.2c-0.1,0-0.2,0-0.3-0.1
					c-0.2,0-0.4-0.1-0.6-0.1c-0.5,0-0.9,0.1-1.2,0.4c-0.3,0.3-0.6,0.7-0.8,1.3v5.2H251.7z"/>
			</g>
		</g>
	</g>
</g>
</svg>
