<?xml version="1.0" encoding="UTF-8"?>
<svg width="53px" height="68px" viewBox="0 0 53 68" version="1.1" xmlns="http://www.w3.org/2000/svg" xmlns:xlink="http://www.w3.org/1999/xlink">
    <!-- Generator: Sketch 58 (84663) - https://sketch.com -->
    <title>Triangle</title>
    <desc>Created with Sketch.</desc>
    <g id="Page-1" stroke="none" stroke-width="1" fill="none" fill-rule="evenodd" fill-opacity="0.2">
        <g id="Website-v1.0-(October)" transform="translate(-694.000000, -859.000000)" fill="#28ABE3" fill-rule="nonzero">
            <path d="M723.990728,869.014568 L753.857143,919 L727.330219,919 C726.349935,919 725.555258,918.211148 725.555258,917.238057 C725.555258,917.005934 725.601464,916.776098 725.691221,916.561755 C728.75043,909.256271 726.996214,905.603528 720.428571,905.603528 C713.860929,905.603528 712.106713,909.256271 715.165923,916.561756 C715.542193,917.46031 715.113417,918.491522 714.208221,918.865034 C713.992293,918.954133 713.760758,919 713.526918,919 L687,919 L716.866415,869.014568 C718.033269,867.06168 720.574024,866.417533 722.541349,867.575825 C723.138285,867.92728 723.636675,868.422012 723.990728,869.014568 Z" id="Triangle" transform="translate(720.428571, 893.000000) rotate(90.000000) translate(-720.428571, -893.000000) "></path>
        </g>
    </g>
</svg>