<?xml version="1.0" encoding="UTF-8"?>
<svg width="53px" height="68px" viewBox="0 0 53 68" version="1.1" xmlns="http://www.w3.org/2000/svg" xmlns:xlink="http://www.w3.org/1999/xlink">
    <!-- Generator: Sketch 58 (84663) - https://sketch.com -->
    <title>Triangle</title>
    <desc>Created with Sketch.</desc>
    <g id="Page-1" stroke="none" stroke-width="1" fill="none" fill-rule="evenodd" fill-opacity="0.2">
        <g id="Website-v1.0-(October)" transform="translate(-694.000000, -1374.000000)" fill="#E7B71B" fill-rule="nonzero">
            <path d="M723.990728,1384.01457 L753.857143,1434 L727.330219,1434 C726.349935,1434 725.555258,1433.21115 725.555258,1432.23806 C725.555258,1432.00593 725.601464,1431.7761 725.691221,1431.56175 C728.75043,1424.25627 726.996214,1420.60353 720.428571,1420.60353 C713.860929,1420.60353 712.106713,1424.25627 715.165923,1431.56176 C715.542193,1432.46031 715.113417,1433.49152 714.208221,1433.86503 C713.992293,1433.95413 713.760758,1434 713.526918,1434 L687,1434 L716.866415,1384.01457 C718.033269,1382.06168 720.574024,1381.41753 722.541349,1382.57582 C723.138285,1382.92728 723.636675,1383.42201 723.990728,1384.01457 Z" id="Triangle" transform="translate(720.428571, 1408.000000) rotate(90.000000) translate(-720.428571, -1408.000000) "></path>
        </g>
    </g>
</svg>